<svg width="70" height="70" viewBox="0 0 70 70" fill="none" xmlns="http://www.w3.org/2000/svg">
<path d="M0 21C0 9.40202 9.40202 0 21 0H49C60.598 0 70 9.40202 70 21V49C70 60.598 60.598 70 49 70H21C9.40202 70 0 60.598 0 49V21Z" fill="url(#paint0_linear_66_197)"/>
<path d="M49.1667 26.0893V39.661C49.1667 43.571 45.9933 46.7443 42.0833 46.7443H27.9167C27.265 46.7443 26.6417 46.6593 26.0325 46.4893C25.1542 46.2485 24.8708 45.1293 25.5225 44.4776L40.5817 29.4185C40.8933 29.1068 41.3608 29.036 41.8 29.121C42.2533 29.206 42.7492 29.0785 43.1033 28.7385L46.7442 25.0835C48.0758 23.7518 49.1667 24.1909 49.1667 26.0893Z" fill="white"/>
<path d="M38.74 28.4268L23.9075 43.2593C23.2275 43.9393 22.0942 43.7693 21.6409 42.9193C21.1167 41.956 20.8334 40.8368 20.8334 39.661V26.0893C20.8334 24.191 21.9242 23.7518 23.2559 25.0835L26.9109 28.7526C27.4634 29.291 28.37 29.291 28.9225 28.7526L33.9942 23.6668C34.5467 23.1143 35.4534 23.1143 36.0059 23.6668L38.7542 26.4151C39.2925 26.9676 39.2925 27.8743 38.74 28.4268Z" fill="white"/>
<defs>
<linearGradient id="paint0_linear_66_197" x1="-6.50001" y1="6.50001" x2="78.9434" y2="66.1703" gradientUnits="userSpaceOnUse">
<stop stop-color="#63A5FF"/>
<stop offset="0.333333" stop-color="#ED30FF"/>
<stop offset="0.65625" stop-color="#FF4A64"/>
<stop offset="1" stop-color="#F5FF8C"/>
</linearGradient>
</defs>
</svg>
