<svg width="70" height="70" viewBox="0 0 70 70" fill="none" xmlns="http://www.w3.org/2000/svg">
<rect width="70" height="70" rx="21" fill="url(#paint0_linear_66_196)"/>
<path d="M39.6184 49.1667C39.5334 49.1667 39.4342 49.1526 39.3492 49.1242C36.5017 48.3167 33.5126 48.3167 30.6651 49.1242C30.1409 49.2659 29.5884 48.9684 29.4467 48.4442C29.2909 47.9201 29.6026 47.3676 30.1267 47.2259C33.3284 46.3192 36.7001 46.3192 39.9017 47.2259C40.4259 47.3817 40.7376 47.9201 40.5817 48.4442C40.4401 48.8834 40.0434 49.1667 39.6184 49.1667Z" fill="white"/>
<path d="M45.2141 27.0101C43.7408 24.0351 40.8933 21.8393 37.5925 21.1168C34.1358 20.3518 30.5941 21.1735 27.8883 23.3551C25.1683 25.5226 23.6241 28.7668 23.6241 32.2376C23.6241 35.9068 25.82 39.746 29.135 41.9701V43.146C29.1208 43.5426 29.1066 44.1518 29.5883 44.6476C30.0841 45.1576 30.8208 45.2143 31.4016 45.2143H38.6691C39.4341 45.2143 40.015 45.0018 40.4116 44.6051C40.95 44.0526 40.9358 43.3443 40.9216 42.9618V41.9701C45.3133 39.0093 48.0758 32.7618 45.2141 27.0101ZM37.4366 34.4618L35.9208 37.0968C35.7225 37.4368 35.3683 37.6351 35 37.6351C34.8158 37.6351 34.6316 37.5926 34.4758 37.4935C33.9658 37.196 33.7958 36.5443 34.0791 36.0485L35.2833 33.9518H34.0933C33.385 33.9518 32.8041 33.6401 32.4925 33.116C32.1808 32.5776 32.2091 31.926 32.5633 31.3026L34.0791 28.6676C34.3766 28.1576 35.0283 27.9876 35.5241 28.271C36.0341 28.5685 36.2041 29.2201 35.9208 29.716L34.7166 31.8126H35.9066C36.615 31.8126 37.1958 32.1243 37.5075 32.6485C37.8191 33.1868 37.7908 33.8526 37.4366 34.4618Z" fill="white"/>
<defs>
<linearGradient id="paint0_linear_66_196" x1="-6.50001" y1="6.50001" x2="78.9434" y2="66.1703" gradientUnits="userSpaceOnUse">
<stop stop-color="#63A5FF"/>
<stop offset="0.333333" stop-color="#ED30FF"/>
<stop offset="0.65625" stop-color="#FF4A64"/>
<stop offset="1" stop-color="#F5FF8C"/>
</linearGradient>
</defs>
</svg>
