<svg width="70" height="70" viewBox="0 0 70 70" fill="none" xmlns="http://www.w3.org/2000/svg">
<rect width="70" height="70" rx="21" fill="url(#paint0_linear_66_203)"/>
<path d="M47.7076 19.4165H43.5426C41.7434 19.4165 40.6667 20.4932 40.6667 22.2923V26.4573C40.6667 28.2565 41.7434 29.3332 43.5426 29.3332H47.7076C49.5067 29.3332 50.5834 28.2565 50.5834 26.4573V22.2923C50.5834 20.4932 49.5067 19.4165 47.7076 19.4165ZM48.6142 24.6298C48.0901 26.3015 46.2626 27.2082 45.6251 27.2082C44.9876 27.2082 43.1742 26.3298 42.6359 24.6298C42.5509 24.3748 42.5084 24.0915 42.5084 23.8223C42.5084 22.9015 42.9759 21.9523 43.9534 21.6407C44.5342 21.4565 45.1576 21.5557 45.5967 21.924C46.0501 21.5698 46.6734 21.4565 47.2684 21.6407C48.5717 22.0515 48.9826 23.5107 48.6142 24.6298Z" fill="white"/>
<path d="M43.5424 31.4585C40.7799 31.4585 38.5416 29.2202 38.5416 26.4577V22.2502C38.5416 21.471 37.9041 20.8335 37.1249 20.8335H27.9166C24.0066 20.8335 20.8333 23.9927 20.8333 27.8885V37.7627C20.8333 41.6727 24.0066 44.846 27.9166 44.846H30.0416C30.4383 44.846 30.9483 45.101 31.1749 45.4127L33.2999 48.2318C34.2349 49.4785 35.7649 49.4785 36.6999 48.2318L38.8249 45.4127C39.0941 45.0585 39.5191 44.846 39.9583 44.846H42.0974C46.0074 44.846 49.1666 41.6868 49.1666 37.7768V32.8752C49.1666 32.096 48.5291 31.4585 47.7499 31.4585H43.5424ZM29.3333 35.0002C28.5399 35.0002 27.9166 34.3627 27.9166 33.5835C27.9166 32.8043 28.5399 32.1668 29.3333 32.1668C30.1124 32.1668 30.7499 32.8043 30.7499 33.5835C30.7499 34.3627 30.1266 35.0002 29.3333 35.0002ZM34.9999 35.0002C34.2066 35.0002 33.5833 34.3627 33.5833 33.5835C33.5833 32.8043 34.2066 32.1668 34.9999 32.1668C35.7791 32.1668 36.4166 32.8043 36.4166 33.5835C36.4166 34.3627 35.7933 35.0002 34.9999 35.0002Z" fill="white"/>
<defs>
<linearGradient id="paint0_linear_66_203" x1="-6.50001" y1="6.50001" x2="78.9434" y2="66.1703" gradientUnits="userSpaceOnUse">
<stop stop-color="#63A5FF"/>
<stop offset="0.333333" stop-color="#ED30FF"/>
<stop offset="0.65625" stop-color="#FF4A64"/>
<stop offset="1" stop-color="#F5FF8C"/>
</linearGradient>
</defs>
</svg>
