<svg width="70" height="70" viewBox="0 0 70 70" fill="none" xmlns="http://www.w3.org/2000/svg">
<rect width="70" height="70" rx="21" fill="url(#paint0_linear_66_200)"/>
<path d="M35.0886 20.9256C34.6783 20.7457 34.2742 20.8715 34.0142 21.1363C33.7617 21.3934 33.6354 21.786 33.7239 22.1817C33.8637 22.8064 33.9375 23.4563 33.9375 24.1238C33.9375 25.648 33.5534 26.7154 32.8924 27.6003C32.2205 28.4999 31.2479 29.2323 30.0199 30.0586C30.0006 30.0716 29.9827 30.0864 29.9663 30.1029L29.8175 30.2528C27.1828 31.955 25.4375 34.9188 25.4375 38.2905C25.4375 43.5717 29.7188 47.853 35 47.853C40.2812 47.853 44.5625 43.5717 44.5625 38.2905C44.5625 36.7399 44.1932 35.2745 43.5373 33.9785C43.484 33.8731 43.3816 33.8012 43.2643 33.7869C43.147 33.7725 43.0303 33.8176 42.9531 33.9071C42.8532 34.0229 42.7554 34.1373 42.659 34.2499C41.4148 35.7036 40.4107 36.8768 38.3521 37.4009C38.2645 37.4232 38.2101 37.4066 38.1715 37.3825C38.1261 37.3541 38.0764 37.2975 38.0424 37.207C37.9714 37.0184 38.0019 36.7779 38.1473 36.6202C39.2483 35.4266 40.0304 33.8062 40.3099 31.5011C40.8335 27.1832 38.871 22.5839 35.0886 20.9256Z" fill="white"/>
<defs>
<linearGradient id="paint0_linear_66_200" x1="-6.50001" y1="6.50001" x2="78.9434" y2="66.1703" gradientUnits="userSpaceOnUse">
<stop stop-color="#63A5FF"/>
<stop offset="0.333333" stop-color="#ED30FF"/>
<stop offset="0.65625" stop-color="#FF4A64"/>
<stop offset="1" stop-color="#F5FF8C"/>
</linearGradient>
</defs>
</svg>
