<svg width="70" height="70" viewBox="0 0 70 70" fill="none" xmlns="http://www.w3.org/2000/svg">
<rect width="70" height="70" rx="21" fill="url(#paint0_linear_66_198)"/>
<path d="M40.8649 22.1931L28.0724 26.4431C19.4733 29.319 19.4733 34.0081 28.0724 36.8698L31.8691 38.1306L33.1299 41.9273C35.9916 50.5265 40.6949 50.5265 43.5566 41.9273L47.8208 29.149C49.7191 23.4115 46.6024 20.2807 40.8649 22.1931ZM41.3183 29.8148L35.9349 35.2265C35.7224 35.439 35.4533 35.5381 35.1841 35.5381C34.9149 35.5381 34.6458 35.439 34.4333 35.2265C34.0224 34.8156 34.0224 34.1357 34.4333 33.7248L39.8166 28.3132C40.2274 27.9023 40.9074 27.9023 41.3183 28.3132C41.7291 28.724 41.7291 29.404 41.3183 29.8148Z" fill="white"/>
<defs>
<linearGradient id="paint0_linear_66_198" x1="-6.50001" y1="6.50001" x2="78.9434" y2="66.1703" gradientUnits="userSpaceOnUse">
<stop stop-color="#63A5FF"/>
<stop offset="0.333333" stop-color="#ED30FF"/>
<stop offset="0.65625" stop-color="#FF4A64"/>
<stop offset="1" stop-color="#F5FF8C"/>
</linearGradient>
</defs>
</svg>
