<svg width="75" height="20" viewBox="0 0 75 20" fill="none" xmlns="http://www.w3.org/2000/svg">
<path d="M0.652344 9.8224C0.652344 4.56598 4.91351 0.30481 10.1699 0.30481H64.896C70.1524 0.30481 74.4136 4.56598 74.4136 9.8224V9.8224C74.4136 15.0788 70.1525 19.34 64.896 19.34H10.1699C4.91352 19.34 0.652344 15.0788 0.652344 9.8224V9.8224Z" fill="url(#paint0_linear_6_801)"/>
<path d="M13.0194 9.38443H19.1347V11.5544H13.0194V9.38443ZM19.3471 6.04599V8.21597H13.1424L14.361 7.02526V14.3921H11.7561V6.04599H19.3471Z" fill="white"/>
<path d="M25.1093 14.5813C24.1031 14.5813 23.2199 14.3995 22.4597 14.036C21.707 13.6725 21.1182 13.1643 20.6933 12.5114C20.2759 11.8586 20.0673 11.0945 20.0673 10.219C20.0673 9.34362 20.2759 8.57949 20.6933 7.92664C21.1182 7.27379 21.707 6.76561 22.4597 6.40209C23.2199 6.03857 24.1031 5.85681 25.1093 5.85681C26.1155 5.85681 26.995 6.03857 27.7477 6.40209C28.5079 6.76561 29.0967 7.27379 29.5141 7.92664C29.9389 8.57949 30.1514 9.34362 30.1514 10.219C30.1514 11.0945 29.9389 11.8586 29.5141 12.5114C29.0967 13.1643 28.5079 13.6725 27.7477 14.036C26.995 14.3995 26.1155 14.5813 25.1093 14.5813ZM25.1093 12.2777C25.6087 12.2777 26.0372 12.1961 26.395 12.0329C26.7602 11.8623 27.0397 11.6249 27.2335 11.3207C27.4272 11.0091 27.5241 10.6419 27.5241 10.219C27.5241 9.79617 27.4272 9.43265 27.2335 9.12848C27.0397 8.81689 26.7602 8.57949 26.395 8.41628C26.0372 8.24565 25.6087 8.16033 25.1093 8.16033C24.61 8.16033 24.1777 8.24565 23.8125 8.41628C23.4547 8.57949 23.1789 8.81689 22.9852 9.12848C22.7914 9.43265 22.6945 9.79617 22.6945 10.219C22.6945 10.6419 22.7914 11.0091 22.9852 11.3207C23.1789 11.6249 23.4547 11.8623 23.8125 12.0329C24.1777 12.1961 24.61 12.2777 25.1093 12.2777Z" fill="white"/>
<path d="M33.055 9.6515H35.9841C36.3121 9.6515 36.5655 9.57732 36.7443 9.42894C36.9307 9.28057 37.0238 9.06542 37.0238 8.78351C37.0238 8.5016 36.9307 8.28645 36.7443 8.13808C36.5655 7.9897 36.3121 7.91552 35.9841 7.91552H32.6861L33.86 6.71368V14.3921H31.2551V6.04599H36.3754C37.0238 6.04599 37.594 6.16098 38.0859 6.39096C38.5778 6.62094 38.9616 6.93995 39.2374 7.34798C39.5132 7.75601 39.6511 8.23452 39.6511 8.78351C39.6511 9.31766 39.5132 9.79246 39.2374 10.2079C38.9616 10.6159 38.5778 10.9349 38.0859 11.1649C37.594 11.3875 37.0238 11.4988 36.3754 11.4988H33.055V9.6515ZM34.173 10.4861H37.0685L39.9529 14.3921H36.9679L34.173 10.4861Z" fill="white"/>
<path d="M43.3339 10.6085C43.3339 10.9572 43.3973 11.254 43.524 11.4988C43.6507 11.7436 43.8407 11.9365 44.0941 12.0774C44.3475 12.211 44.6643 12.2777 45.0444 12.2777C45.4394 12.2777 45.7636 12.211 46.017 12.0774C46.2704 11.9439 46.4568 11.7547 46.576 11.5099C46.7027 11.2577 46.7661 10.9572 46.7661 10.6085V6.04599H49.3709V10.7532C49.3709 11.5173 49.1921 12.1887 48.8343 12.7674C48.4766 13.3386 47.9735 13.7837 47.3251 14.1028C46.6766 14.4218 45.9164 14.5813 45.0444 14.5813C44.1873 14.5813 43.4345 14.4218 42.7861 14.1028C42.1377 13.7837 41.6309 13.3386 41.2657 12.7674C40.9079 12.1887 40.729 11.5173 40.729 10.7532V6.04599H43.3339V10.6085Z" fill="white"/>
<path d="M63.3097 6.04599V14.3921H60.8278V7.00301L61.3421 7.05865L58.3124 14.3921H55.7187L52.6778 7.08091L53.1921 7.01414V14.3921H50.7213V6.04599H54.7349L57.4962 13.0233H56.546L59.285 6.04599H63.3097Z" fill="white"/>
<defs>
<linearGradient id="paint0_linear_6_801" x1="0.652344" y1="12.1066" x2="77.1321" y2="18.1696" gradientUnits="userSpaceOnUse">
<stop stop-color="#63A5FF"/>
<stop offset="0.333333" stop-color="#ED30FF"/>
<stop offset="0.65625" stop-color="#FF4A64"/>
<stop offset="1" stop-color="#F5FF8C"/>
</linearGradient>
</defs>
</svg>
