<svg width="1303" height="345" viewBox="0 0 1303 345" fill="none" xmlns="http://www.w3.org/2000/svg">
<path fill-rule="evenodd" clip-rule="evenodd" d="M0.998466 1.49707H0V0.49707H0.998466V1.49707ZM4.99233 1.49707H2.9954V0.49707H4.99233V1.49707ZM8.9862 1.49707H6.98926V0.49707H8.9862V1.49707ZM12.9801 1.49707H10.9831V0.49707H12.9801V1.49707ZM16.9739 1.49707H14.977V0.49707H16.9739V1.49707ZM20.9678 1.49707H18.9709V0.49707H20.9678V1.49707ZM24.9617 1.49707H22.9647V0.49707H24.9617V1.49707ZM28.9555 1.49707H26.9586V0.49707H28.9555V1.49707ZM32.9494 1.49707H30.9525V0.49707H32.9494V1.49707ZM36.9433 1.49707H34.9463V0.49707H36.9433V1.49707ZM40.9371 1.49707H38.9402V0.49707H40.9371V1.49707ZM44.931 1.49707H42.9341V0.49707H44.931V1.49707ZM48.9249 1.49707H46.9279V0.49707H48.9249V1.49707ZM52.9187 1.49707H50.9218V0.49707H52.9187V1.49707ZM56.9126 1.49707H54.9156V0.49707H56.9126V1.49707ZM60.9065 1.49707H58.9095V0.49707H60.9065V1.49707ZM64.9003 1.49707H62.9034V0.49707H64.9003V1.49707ZM68.8942 1.49707H66.8972V0.49707H68.8942V1.49707ZM72.888 1.49707H70.8911V0.49707H72.888V1.49707ZM76.8819 1.49707H74.885V0.49707H76.8819V1.49707ZM80.8758 1.49707H78.8788V0.49707H80.8758V1.49707ZM84.8696 1.49707H82.8727V0.49707H84.8696V1.49707ZM88.8635 1.49707H86.8666V0.49707H88.8635V1.49707ZM92.8574 1.49707H90.8604V0.49707H92.8574V1.49707ZM96.8512 1.49707H94.8543V0.49707H96.8512V1.49707ZM100.845 1.49707H98.8482V0.49707H100.845V1.49707ZM104.839 1.49707H102.842V0.49707H104.839V1.49707ZM108.833 1.49707H106.836V0.49707H108.833V1.49707ZM112.827 1.49707H110.83V0.49707H112.827V1.49707ZM116.821 1.49707H114.824V0.49707H116.821V1.49707ZM120.814 1.49707H118.818V0.49707H120.814V1.49707ZM124.808 1.49707H122.811V0.49707H124.808V1.49707ZM128.802 1.49707H126.805V0.49707H128.802V1.49707ZM132.796 1.49707H130.799V0.49707H132.796V1.49707ZM136.79 1.49707H134.793V0.49707H136.79V1.49707ZM140.784 1.49707H138.787V0.49707H140.784V1.49707ZM144.778 1.49707H142.781V0.49707H144.778V1.49707ZM148.771 1.49707H146.775V0.49707H148.771V1.49707ZM152.765 1.49707H150.768V0.49707H152.765V1.49707ZM156.759 1.49707H154.762V0.49707H156.759V1.49707ZM160.753 1.49707H158.756V0.49707H160.753V1.49707ZM164.747 1.49707H162.75V0.49707H164.747V1.49707ZM168.741 1.49707H166.744V0.49707H168.741V1.49707ZM172.735 1.49707H170.738V0.49707H172.735V1.49707ZM176.729 1.49707H174.732V0.49707H176.729V1.49707ZM180.722 1.49707H178.725V0.49707H180.722V1.49707ZM184.716 1.49707H182.719V0.49707H184.716V1.49707ZM188.71 1.49707H186.713V0.49707H188.71V1.49707ZM192.704 1.49707H190.707V0.49707H192.704V1.49707ZM196.698 1.49707H194.701V0.49707H196.698V1.49707ZM200.692 1.49707H198.695V0.49707H200.692V1.49707ZM204.686 1.49707H202.689V0.49707H204.686V1.49707ZM208.679 1.49707H206.683V0.49707H208.679V1.49707ZM212.673 1.49707H210.676V0.49707H212.673V1.49707ZM216.667 1.49707H214.67V0.49707H216.667V1.49707ZM220.661 1.49707H218.664V0.49707H220.661V1.49707ZM224.655 1.49707H222.658V0.49707H224.655V1.49707ZM228.649 1.49707H226.652V0.49707H228.649V1.49707ZM232.643 1.49707H230.646V0.49707H232.643V1.49707ZM236.637 1.49707H234.64V0.49707H236.637V1.49707ZM240.63 1.49707H238.633V0.49707H240.63V1.49707ZM244.624 1.49707H242.627V0.49707H244.624V1.49707ZM248.618 1.49707H246.621V0.49707H248.618V1.49707ZM252.612 1.49707H250.615V0.49707H252.612V1.49707ZM256.606 1.49707H254.609V0.49707H256.606V1.49707ZM260.6 1.49707H258.603V0.49707H260.6V1.49707ZM264.594 1.49707H262.597V0.49707H264.594V1.49707ZM268.587 1.49707H266.59V0.49707H268.587V1.49707ZM272.581 1.49707H270.584V0.49707H272.581V1.49707ZM276.575 1.49707H274.578V0.49707H276.575V1.49707ZM280.569 1.49707H278.572V0.49707H280.569V1.49707ZM284.563 1.49707H282.566V0.49707H284.563V1.49707ZM288.557 1.49707H286.56V0.49707H288.557V1.49707ZM292.55 1.49707H290.553V0.49707H292.55V1.49707ZM296.544 1.49707H294.547V0.49707H296.544V1.49707ZM300.538 1.49707H298.541V0.49707H300.538V1.49707ZM304.532 1.49707H302.535V0.49707H304.532V1.49707ZM308.526 1.49707H306.529V0.49707H308.526V1.49707ZM312.52 1.49707H310.523V0.49707H312.52V1.49707ZM316.513 1.49707H314.516V0.49707H316.513V1.49707ZM320.507 1.49707H318.51V0.49707H320.507V1.49707ZM324.501 1.49707H322.504V0.49707H324.501V1.49707ZM328.495 1.49707H326.498V0.49707H328.495V1.49707ZM332.489 1.49707H330.492V0.49707H332.489V1.49707ZM336.483 1.49707H334.486V0.49707H336.483V1.49707ZM340.476 1.49707H338.479V0.49707H340.476V1.49707ZM344.47 1.49707H342.473V0.49707H344.47V1.49707ZM348.464 1.49707H346.467V0.49707H348.464V1.49707ZM352.458 1.49707H350.461V0.49707H352.458V1.49707ZM356.452 1.49707H354.455V0.49707H356.452V1.49707ZM360.446 1.49707H358.449V0.49707H360.446V1.49707ZM364.439 1.49707H362.443V0.49707H364.439V1.49707ZM368.433 1.49707H366.436V0.49707H368.433V1.49707ZM372.427 1.49707H370.43V0.49707H372.427V1.49707ZM376.421 1.49707H374.424V0.49707H376.421V1.49707ZM380.415 1.49707H378.418V0.49707H380.415V1.49707ZM384.409 1.49707H382.412V0.49707H384.409V1.49707ZM388.402 1.49707H386.406V0.49707H388.402V1.49707ZM392.396 1.49707H390.399V0.49707H392.396V1.49707ZM396.39 1.49707H394.393V0.49707H396.39V1.49707ZM400.384 1.49707H398.387V0.49707H400.384V1.49707ZM404.378 1.49707H402.381V0.49707H404.378V1.49707ZM408.372 1.49707H406.375V0.49707H408.372V1.49707ZM412.365 1.49707H410.369V0.49707H412.365V1.49707ZM416.359 1.49707H414.362V0.49707H416.359V1.49707ZM420.353 1.49707H418.356V0.49707H420.353V1.49707ZM424.347 1.49707H422.35V0.49707H424.347V1.49707ZM428.341 1.49707H426.344V0.49707H428.341V1.49707ZM432.335 1.49707H430.338V0.49707H432.335V1.49707ZM436.328 1.49707H434.332V0.49707H436.328V1.49707ZM440.322 1.49707H438.325V0.49707H440.322V1.49707ZM444.316 1.49707H442.319V0.49707H444.316V1.49707ZM448.31 1.49707H446.313V0.49707H448.31V1.49707ZM452.304 1.49707H450.307V0.49707H452.304V1.49707ZM456.298 1.49707H454.301V0.49707H456.298V1.49707ZM460.291 1.49707H458.295V0.49707H460.291V1.49707ZM464.285 1.49707H462.288V0.49707H464.285V1.49707ZM468.279 1.49707H466.282V0.49707H468.279V1.49707ZM472.273 1.49707H470.276V0.49707H472.273V1.49707ZM476.267 1.49707H474.27V0.49707H476.267V1.49707ZM480.261 1.49707H478.264V0.49707H480.261V1.49707ZM484.254 1.49707H482.258V0.49707H484.254V1.49707ZM488.248 1.49707H486.251V0.49707H488.248V1.49707ZM492.242 1.49707H490.245V0.49707H492.242V1.49707ZM496.236 1.49707H494.239V0.49707H496.236V1.49707ZM500.23 1.49707H498.233V0.49707H500.23V1.49707ZM504.224 1.49707H502.227V0.49707H504.224V1.49707ZM508.217 1.49707H506.221V0.49707H508.217V1.49707ZM512.211 1.49707H510.214V0.49707H512.211V1.49707ZM516.205 1.49707H514.208V0.49707H516.205V1.49707ZM520.199 1.49707H518.202V0.49707H520.199V1.49707ZM524.193 1.49707H522.196V0.49707H524.193V1.49707ZM528.187 1.49707H526.19V0.49707H528.187V1.49707ZM532.181 1.49707H530.184V0.49707H532.181V1.49707ZM536.175 1.49707H534.178V0.49707H536.175V1.49707ZM540.169 1.49707H538.172V0.49707H540.169V1.49707ZM544.163 1.49707H542.166V0.49707H544.163V1.49707ZM548.156 1.49707H546.159V0.49707H548.156V1.49707ZM552.15 1.49707H550.153V0.49707H552.15V1.49707ZM556.144 1.49707H554.147V0.49707H556.144V1.49707ZM560.138 1.49707H558.141V0.49707H560.138V1.49707ZM564.132 1.49707H562.135V0.49707H564.132V1.49707ZM568.126 1.49707H566.129V0.49707H568.126V1.49707ZM572.12 1.49707H570.123V0.49707H572.12V1.49707ZM576.114 1.49707H574.117V0.49707H576.114V1.49707ZM580.108 1.49707H578.111V0.49707H580.108V1.49707ZM584.102 1.49707H582.105V0.49707H584.102V1.49707ZM588.095 1.49707H586.098V0.49707H588.095V1.49707ZM592.089 1.49707H590.092V0.49707H592.089V1.49707ZM596.083 1.49707H594.086V0.49707H596.083V1.49707ZM600.077 1.49707H598.08V0.49707H600.077V1.49707ZM604.071 1.49707H602.074V0.49707H604.071V1.49707ZM608.065 1.49707H606.068V0.49707H608.065V1.49707ZM612.059 1.49707H610.062V0.49707H612.059V1.49707ZM616.053 1.49707H614.056V0.49707H616.053V1.49707ZM620.047 1.49707H618.05V0.49707H620.047V1.49707ZM624.04 1.49707H622.044V0.49707H624.04V1.49707ZM628.034 1.49707H626.037V0.49707H628.034V1.49707ZM632.028 1.49707H630.031V0.49707H632.028V1.49707ZM636.022 1.49707H634.025V0.49707H636.022V1.49707ZM640.016 1.49707H638.019V0.49707H640.016V1.49707ZM644.01 1.49707H642.013V0.49707H644.01V1.49707ZM648.004 1.49707H646.007V0.49707H648.004V1.49707ZM651.998 1.49707H650.001V0.49707H651.998V1.49707ZM655.992 1.49707H653.995V0.49707H655.992V1.49707ZM659.986 1.49707H657.989V0.49707H659.986V1.49707ZM663.979 1.49707H661.982V0.49707H663.979V1.49707ZM667.973 1.49707H665.976V0.49707H667.973V1.49707ZM671.967 1.49707H669.97V0.49707H671.967V1.49707ZM675.961 1.49707H673.964V0.49707H675.961V1.49707ZM679.955 1.49707H677.958V0.49707H679.955V1.49707ZM683.949 1.49707H681.952V0.49707H683.949V1.49707ZM687.943 1.49707H685.946V0.49707H687.943V1.49707ZM691.937 1.49707H689.94V0.49707H691.937V1.49707ZM695.931 1.49707H693.934V0.49707H695.931V1.49707ZM699.924 1.49707H697.928V0.49707H699.924V1.49707ZM703.918 1.49707H701.921V0.49707H703.918V1.49707ZM707.912 1.49707H705.915V0.49707H707.912V1.49707ZM711.906 1.49707H709.909V0.49707H711.906V1.49707ZM715.9 1.49707H713.903V0.49707H715.9V1.49707ZM719.894 1.49707H717.897V0.49707H719.894V1.49707ZM723.888 1.49707H721.891V0.49707H723.888V1.49707ZM727.882 1.49707H725.885V0.49707H727.882V1.49707ZM731.876 1.49707H729.879V0.49707H731.876V1.49707ZM735.87 1.49707H733.873V0.49707H735.87V1.49707ZM739.863 1.49707H737.867V0.49707H739.863V1.49707ZM743.857 1.49707H741.86V0.49707H743.857V1.49707ZM747.851 1.49707H745.854V0.49707H747.851V1.49707ZM751.845 1.49707H749.848V0.49707H751.845V1.49707ZM755.839 1.49707H753.842V0.49707H755.839V1.49707ZM759.833 1.49707H757.836V0.49707H759.833V1.49707ZM763.827 1.49707H761.83V0.49707H763.827V1.49707ZM767.821 1.49707H765.824V0.49707H767.821V1.49707ZM771.815 1.49707H769.818V0.49707H771.815V1.49707ZM775.809 1.49707H773.812V0.49707H775.809V1.49707ZM779.802 1.49707H777.805V0.49707H779.802V1.49707ZM783.796 1.49707H781.799V0.49707H783.796V1.49707ZM787.79 1.49707H785.793V0.49707H787.79V1.49707ZM791.784 1.49707H789.787V0.49707H791.784V1.49707ZM795.778 1.49707H793.781V0.49707H795.778V1.49707ZM799.772 1.49707H797.775V0.49707H799.772V1.49707ZM803.766 1.49707H801.769V0.49707H803.766V1.49707ZM807.76 1.49707H805.763V0.49707H807.76V1.49707ZM811.754 1.49707H809.757V0.49707H811.754V1.49707ZM815.747 1.49707H813.751V0.49707H815.747V1.49707ZM819.741 1.49707H817.744V0.49707H819.741V1.49707ZM823.735 1.49707H821.738V0.49707H823.735V1.49707ZM827.729 1.49707H825.732V0.49707H827.729V1.49707ZM831.723 1.49707H829.726V0.49707H831.723V1.49707ZM835.717 1.49707H833.72V0.49707H835.717V1.49707ZM839.711 1.49707H837.714V0.49707H839.711V1.49707ZM843.705 1.49707H841.708V0.49707H843.705V1.49707ZM847.699 1.49707H845.702V0.49707H847.699V1.49707ZM851.693 1.49707H849.696V0.49707H851.693V1.49707ZM855.686 1.49707H853.69V0.49707H855.686V1.49707ZM859.68 1.49707H857.683V0.49707H859.68V1.49707ZM863.674 1.49707H861.677V0.49707H863.674V1.49707ZM867.668 1.49707H865.671V0.49707H867.668V1.49707ZM871.662 1.49707H869.665V0.49707H871.662V1.49707ZM875.656 1.49707H873.659V0.49707H875.656V1.49707ZM879.65 1.49707H877.653V0.49707H879.65V1.49707ZM883.644 1.49707H881.647V0.49707H883.644V1.49707ZM887.638 1.49707H885.641V0.49707H887.638V1.49707ZM891.632 1.49707H889.635V0.49707H891.632V1.49707ZM895.625 1.49707H893.628V0.49707H895.625V1.49707ZM899.619 1.49707H897.622V0.49707H899.619V1.49707ZM903.613 1.49707H901.616V0.49707H903.613V1.49707ZM907.607 1.49707H905.61V0.49707H907.607V1.49707ZM911.601 1.49707H909.604V0.49707H911.601V1.49707ZM915.595 1.49707H913.598V0.49707H915.595V1.49707ZM919.589 1.49707H917.592V0.49707H919.589V1.49707ZM923.583 1.49707H921.586V0.49707H923.583V1.49707ZM927.577 1.49707H925.58V0.49707H927.577V1.49707ZM931.57 1.49707H929.574V0.49707H931.57V1.49707ZM935.564 1.49707H933.567V0.49707H935.564V1.49707ZM939.558 1.49707H937.561V0.49707H939.558V1.49707ZM943.552 1.49707H941.555V0.49707H943.552V1.49707ZM947.546 1.49707H945.549V0.49707H947.546V1.49707ZM951.54 1.49707H949.543V0.49707H951.54V1.49707ZM955.534 1.49707H953.537V0.49707H955.534V1.49707ZM959.528 1.49707H957.531V0.49707H959.528V1.49707ZM963.522 1.49707H961.525V0.49707H963.522V1.49707ZM967.516 1.49707H965.519V0.49707H967.516V1.49707ZM971.509 1.49707H969.513V0.49707H971.509V1.49707ZM975.503 1.49707H973.506V0.49707H975.503V1.49707ZM979.497 1.49707H977.5V0.49707H979.497V1.49707ZM983.491 1.49707H981.494V0.49707H983.491V1.49707ZM987.485 1.49707H985.488V0.49707H987.485V1.49707ZM991.479 1.49707H989.482V0.49707H991.479V1.49707ZM995.473 1.49707H993.476V0.49707H995.473V1.49707ZM999.467 1.49707H997.47V0.49707H999.467V1.49707ZM1003.46 1.49707H1001.46V0.49707H1003.46V1.49707ZM1007.45 1.49707H1005.46V0.49707H1007.45V1.49707ZM1011.45 1.49707H1009.45V0.49707H1011.45V1.49707ZM1015.44 1.49707H1013.45V0.49707H1015.44V1.49707ZM1019.44 1.49707H1017.44V0.49707H1019.44V1.49707ZM1023.43 1.49707H1021.43V0.49707H1023.43V1.49707ZM1027.42 1.49707H1025.43V0.49707H1027.42V1.49707ZM1031.42 1.49707H1029.42V0.49707H1031.42V1.49707ZM1035.41 1.49707H1033.41V0.49707H1035.41V1.49707ZM1039.41 1.49707H1037.41V0.49707H1039.41V1.49707ZM1043.4 1.49707H1041.4V0.49707H1043.4V1.49707ZM1047.39 1.49707H1045.4V0.49707H1047.39V1.49707ZM1051.39 1.49707H1049.39V0.49707H1051.39V1.49707ZM1055.38 1.49707H1053.38V0.49707H1055.38V1.49707ZM1059.38 1.49707H1057.38V0.49707H1059.38V1.49707ZM1063.37 1.49707H1061.37V0.49707H1063.37V1.49707ZM1067.36 1.49707H1065.37V0.49707H1067.36V1.49707ZM1071.36 1.49707H1069.36V0.49707H1071.36V1.49707ZM1075.35 1.49707H1073.35V0.49707H1075.35V1.49707ZM1079.34 1.49707H1077.35V0.49707H1079.34V1.49707ZM1083.34 1.49707H1081.34V0.49707H1083.34V1.49707ZM1087.33 1.49707H1085.34V0.49707H1087.33V1.49707ZM1091.33 1.49707H1089.33V0.49707H1091.33V1.49707ZM1095.32 1.49707H1093.32V0.49707H1095.32V1.49707ZM1099.31 1.49707H1097.32V0.49707H1099.31V1.49707ZM1103.31 1.49707H1101.31V0.49707H1103.31V1.49707ZM1107.3 1.49707H1105.3V0.49707H1107.3V1.49707ZM1111.3 1.49707H1109.3V0.49707H1111.3V1.49707ZM1115.29 1.49707H1113.29V0.49707H1115.29V1.49707ZM1119.28 1.49707H1117.29V0.49707H1119.28V1.49707ZM1123.28 1.49707H1121.28V0.49707H1123.28V1.49707ZM1127.27 1.49707H1125.27V0.49707H1127.27V1.49707ZM1131.27 1.49707H1129.27V0.49707H1131.27V1.49707ZM1135.26 1.49707H1133.26V0.49707H1135.26V1.49707ZM1139.25 1.49707H1137.26V0.49707H1139.25V1.49707ZM1143.25 1.49707H1141.25V0.49707H1143.25V1.49707ZM1147.24 1.49707H1145.24V0.49707H1147.24V1.49707ZM1151.23 1.49707H1149.24V0.49707H1151.23V1.49707ZM1155.23 1.49707H1153.23V0.49707H1155.23V1.49707ZM1159.22 1.49707H1157.23V0.49707H1159.22V1.49707ZM1163.22 1.49707H1161.22V0.49707H1163.22V1.49707ZM1167.21 1.49707H1165.21V0.49707H1167.21V1.49707ZM1171.2 1.49707H1169.21V0.49707H1171.2V1.49707ZM1175.2 1.49707H1173.2V0.49707H1175.2V1.49707ZM1179.19 1.49707H1177.2V0.49707H1179.19V1.49707ZM1183.19 1.49707H1181.19V0.49707H1183.19V1.49707ZM1187.18 1.49707H1185.18V0.49707H1187.18V1.49707ZM1191.17 1.49707H1189.18V0.49707H1191.17V1.49707ZM1195.17 1.49707H1193.17V0.49707H1195.17V1.49707ZM1199.16 1.49707H1197.16V0.49707H1199.16V1.49707ZM1203.16 1.49707H1201.16V0.49707H1203.16V1.49707ZM1207.15 1.49707H1205.15V0.49707H1207.15V1.49707ZM1211.14 1.49707H1209.15V0.49707H1211.14V1.49707ZM1215.14 1.49707H1213.14V0.49707H1215.14V1.49707ZM1219.13 1.49707H1217.13V0.49707H1219.13V1.49707ZM1223.12 1.49707H1221.13V0.49707H1223.12V1.49707ZM1227.12 1.49707H1225.12V0.49707H1227.12V1.49707ZM1231.11 1.49707H1229.12V0.49707H1231.11V1.49707ZM1235.11 1.49707H1233.11V0.49707H1235.11V1.49707ZM1239.1 1.49707H1237.1V0.49707H1239.1V1.49707ZM1243.09 1.49707H1241.1V0.49707H1243.09V1.49707ZM1247.09 1.49707H1245.09V0.49707H1247.09V1.49707ZM1251.08 1.49707H1249.09V0.49707H1251.08V1.49707ZM1255.08 1.49707H1253.08V0.49707H1255.08V1.49707ZM1259.07 1.49707H1257.07V0.49707H1259.07V1.49707ZM1263.06 1.49707H1261.07V0.49707H1263.06V1.49707ZM1267.06 1.49707H1265.06V0.49707H1267.06V1.49707ZM1271.05 1.49707H1269.05V0.49707H1271.05V1.49707ZM1275.05 1.49707H1273.05V0.49707H1275.05V1.49707ZM1279.04 1.49707H1277.04V0.49707H1279.04V1.49707ZM1283.03 1.49707H1281.04V0.49707H1283.03V1.49707ZM1287.03 1.49707H1285.03V0.49707H1287.03V1.49707ZM1291.02 1.49707H1289.02V0.49707H1291.02V1.49707ZM1295.02 1.49707H1293.02V0.49707H1295.02V1.49707ZM1299.01 1.49707H1297.01V0.49707H1299.01V1.49707ZM1301.5 1.49707H1301.01V0.49707H1302.5V1.99417H1301.5V1.49707ZM1301.5 5.98258V3.98838H1302.5V5.98258H1301.5ZM1301.5 9.97098V7.97678H1302.5V9.97098H1301.5ZM1301.5 13.9594V11.9652H1302.5V13.9594H1301.5ZM1301.5 17.9478V15.9536H1302.5V17.9478H1301.5ZM1301.5 21.9362V19.942H1302.5V21.9362H1301.5ZM1301.5 25.9246V23.9304H1302.5V25.9246H1301.5ZM1301.5 29.913V27.9188H1302.5V29.913H1301.5ZM1301.5 33.9014V31.9072H1302.5V33.9014H1301.5ZM1301.5 37.8898V35.8956H1302.5V37.8898H1301.5ZM1301.5 41.8782V39.884H1302.5V41.8782H1301.5ZM1301.5 45.8666V43.8724H1302.5V45.8666H1301.5ZM1301.5 49.855V47.8608H1302.5V49.855H1301.5ZM1301.5 53.8434V51.8492H1302.5V53.8434H1301.5ZM1301.5 57.8318V55.8376H1302.5V57.8318H1301.5ZM1301.5 61.8202V59.826H1302.5V61.8202H1301.5ZM1301.5 65.8087V63.8145H1302.5V65.8087H1301.5ZM1301.5 69.7971V67.8029H1302.5V69.7971H1301.5ZM1301.5 73.7855V71.7913H1302.5V73.7855H1301.5ZM1301.5 77.7739V75.7797H1302.5V77.7739H1301.5ZM1301.5 81.7623V79.7681H1302.5V81.7623H1301.5ZM1301.5 85.7507V83.7565H1302.5V85.7507H1301.5ZM1301.5 89.7391V87.7449H1302.5V89.7391H1301.5ZM1301.5 93.7275V91.7333H1302.5V93.7275H1301.5ZM1301.5 97.7159V95.7217H1302.5V97.7159H1301.5ZM1301.5 101.704V99.7101H1302.5V101.704H1301.5ZM1301.5 105.693V103.698H1302.5V105.693H1301.5ZM1301.5 109.681V107.687H1302.5V109.681H1301.5ZM1301.5 113.669V111.675H1302.5V113.669H1301.5ZM1301.5 117.658V115.664H1302.5V117.658H1301.5ZM1301.5 121.646V119.652H1302.5V121.646H1301.5ZM1301.5 125.635V123.641H1302.5V125.635H1301.5ZM1301.5 129.623V127.629H1302.5V129.623H1301.5ZM1301.5 133.612V131.617H1302.5V133.612H1301.5ZM1301.5 137.6V135.606H1302.5V137.6H1301.5ZM1301.5 141.588V139.594H1302.5V141.588H1301.5ZM1301.5 145.577V143.583H1302.5V145.577H1301.5ZM1301.5 149.565V147.571H1302.5V149.565H1301.5ZM1301.5 153.554V151.559H1302.5V153.554H1301.5ZM1301.5 157.542V155.548H1302.5V157.542H1301.5ZM1301.5 161.53V159.536H1302.5V161.53H1301.5ZM1301.5 165.519V163.525H1302.5V165.519H1301.5ZM1301.5 169.507V167.513H1302.5V169.507H1301.5ZM1301.5 173.496V171.501H1302.5V173.496H1301.5ZM1301.5 177.484V175.49H1302.5V177.484H1301.5ZM1301.5 181.472V179.478H1302.5V181.472H1301.5ZM1301.5 185.461V183.467H1302.5V185.461H1301.5ZM1301.5 189.449V187.455H1302.5V189.449H1301.5ZM1301.5 193.438V191.443H1302.5V193.438H1301.5ZM1301.5 197.426V195.432H1302.5V197.426H1301.5ZM1301.5 201.414V199.42H1302.5V201.414H1301.5ZM1301.5 205.403V203.409H1302.5V205.403H1301.5ZM1301.5 209.391V207.397H1302.5V209.391H1301.5ZM1301.5 213.38V211.385H1302.5V213.38H1301.5ZM1301.5 217.368V215.374H1302.5V217.368H1301.5ZM1301.5 221.356V219.362H1302.5V221.356H1301.5ZM1301.5 225.345V223.351H1302.5V225.345H1301.5ZM1301.5 229.333V227.339H1302.5V229.333H1301.5ZM1301.5 233.322V231.327H1302.5V233.322H1301.5ZM1301.5 237.31V235.316H1302.5V237.31H1301.5ZM1301.5 241.298V239.304H1302.5V241.298H1301.5ZM1301.5 245.287V243.293H1302.5V245.287H1301.5ZM1301.5 249.275V247.281H1302.5V249.275H1301.5ZM1301.5 253.264V251.269H1302.5V253.264H1301.5ZM1301.5 257.252V255.258H1302.5V257.252H1301.5ZM1301.5 261.24V259.246H1302.5V261.24H1301.5ZM1301.5 265.229V263.235H1302.5V265.229H1301.5ZM1301.5 269.217V267.223H1302.5V269.217H1301.5ZM1301.5 273.206V271.211H1302.5V273.206H1301.5ZM1301.5 277.194V275.2H1302.5V277.194H1301.5ZM1301.5 281.182V279.188H1302.5V281.182H1301.5ZM1301.5 285.171V283.177H1302.5V285.171H1301.5ZM1301.5 289.159V287.165H1302.5V289.159H1301.5ZM1301.5 293.148V291.153H1302.5V293.148H1301.5ZM1301.5 297.136V295.142H1302.5V297.136H1301.5ZM1301.5 301.124V299.13H1302.5V301.124H1301.5ZM1301.5 305.113V303.119H1302.5V305.113H1301.5ZM1301.5 309.101V307.107H1302.5V309.101H1301.5ZM1301.5 313.09V311.095H1302.5V313.09H1301.5ZM1301.5 317.078V315.084H1302.5V317.078H1301.5ZM1301.5 321.066V319.072H1302.5V321.066H1301.5ZM1301.5 325.055V323.061H1302.5V325.055H1301.5ZM1301.5 329.043V327.049H1302.5V329.043H1301.5ZM1301.5 333.032V331.037H1302.5V333.032H1301.5ZM1301.5 337.02V335.026H1302.5V337.02H1301.5ZM1301.5 341.008V339.014H1302.5V341.008H1301.5ZM1301.5 343.5V343.003H1302.5V344.5H1301V343.5H1301.5ZM136 343.5H136.995V344.5H136V343.5ZM138.991 343.5H140.988V344.5H138.991V343.5ZM142.985 343.5H144.981V344.5H142.985V343.5ZM146.978 343.5H148.974V344.5H146.978V343.5ZM150.971 343.5H152.968V344.5H150.971V343.5ZM154.964 343.5H156.961V344.5H154.964V343.5ZM158.957 343.5H160.954V344.5H158.957V343.5ZM162.95 343.5H164.947V344.5H162.95V343.5ZM166.944 343.5H168.94V344.5H166.944V343.5ZM170.937 343.5H172.933V344.5H170.937V343.5ZM174.93 343.5H176.927V344.5H174.93V343.5ZM178.923 343.5H180.92V344.5H178.923V343.5ZM182.916 343.5H184.913V344.5H182.916V343.5ZM186.909 343.5H188.906V344.5H186.909V343.5ZM190.903 343.5H192.899V344.5H190.903V343.5ZM194.896 343.5H196.892V344.5H194.896V343.5ZM198.889 343.5H200.886V344.5H198.889V343.5ZM202.882 343.5H204.879V344.5H202.882V343.5ZM206.875 343.5H208.872V344.5H206.875V343.5ZM210.868 343.5H212.865V344.5H210.868V343.5ZM214.862 343.5H216.858V344.5H214.862V343.5ZM218.855 343.5H220.851V344.5H218.855V343.5ZM222.848 343.5H224.844V344.5H222.848V343.5ZM226.841 343.5H228.838V344.5H226.841V343.5ZM230.834 343.5H232.831V344.5H230.834V343.5ZM234.827 343.5H236.824V344.5H234.827V343.5ZM238.821 343.5H240.817V344.5H238.821V343.5ZM242.814 343.5H244.81V344.5H242.814V343.5ZM246.807 343.5H248.803V344.5H246.807V343.5ZM250.8 343.5H252.797V344.5H250.8V343.5ZM254.793 343.5H256.79V344.5H254.793V343.5ZM258.786 343.5H260.783V344.5H258.786V343.5ZM262.78 343.5H264.776V344.5H262.78V343.5ZM266.773 343.5H268.769V344.5H266.773V343.5ZM270.766 343.5H272.762V344.5H270.766V343.5ZM274.759 343.5H276.756V344.5H274.759V343.5ZM278.752 343.5H280.749V344.5H278.752V343.5ZM282.745 343.5H284.742V344.5H282.745V343.5ZM286.738 343.5H288.735V344.5H286.738V343.5ZM290.732 343.5H292.728V344.5H290.732V343.5ZM294.725 343.5H296.721V344.5H294.725V343.5ZM298.718 343.5H300.715V344.5H298.718V343.5ZM302.711 343.5H304.708V344.5H302.711V343.5ZM306.704 343.5H308.701V344.5H306.704V343.5ZM310.698 343.5H312.694V344.5H310.698V343.5ZM314.691 343.5H316.687V344.5H314.691V343.5ZM318.684 343.5H320.68V344.5H318.684V343.5ZM322.677 343.5H324.674V344.5H322.677V343.5ZM326.67 343.5H328.667V344.5H326.67V343.5ZM330.663 343.5H332.66V344.5H330.663V343.5ZM334.656 343.5H336.653V344.5H334.656V343.5ZM338.65 343.5H340.646V344.5H338.65V343.5ZM342.643 343.5H344.639V344.5H342.643V343.5ZM346.636 343.5H348.633V344.5H346.636V343.5ZM350.629 343.5H352.626V344.5H350.629V343.5ZM354.622 343.5H356.619V344.5H354.622V343.5ZM358.616 343.5H360.612V344.5H358.616V343.5ZM362.609 343.5H364.605V344.5H362.609V343.5ZM366.602 343.5H368.598V344.5H366.602V343.5ZM370.595 343.5H372.592V344.5H370.595V343.5ZM374.588 343.5H376.585V344.5H374.588V343.5ZM378.581 343.5H380.578V344.5H378.581V343.5ZM382.574 343.5H384.571V344.5H382.574V343.5ZM386.568 343.5H388.564V344.5H386.568V343.5ZM390.561 343.5H392.557V344.5H390.561V343.5ZM394.554 343.5H396.551V344.5H394.554V343.5ZM398.547 343.5H400.544V344.5H398.547V343.5ZM402.54 343.5H404.537V344.5H402.54V343.5ZM406.533 343.5H408.53V344.5H406.533V343.5ZM410.527 343.5H412.523V344.5H410.527V343.5ZM414.52 343.5H416.516V344.5H414.52V343.5ZM418.513 343.5H420.51V344.5H418.513V343.5ZM422.506 343.5H424.503V344.5H422.506V343.5ZM426.499 343.5H428.496V344.5H426.499V343.5ZM430.492 343.5H432.489V344.5H430.492V343.5ZM434.486 343.5H436.482V344.5H434.486V343.5ZM438.479 343.5H440.475V344.5H438.479V343.5ZM442.472 343.5H444.469V344.5H442.472V343.5ZM446.465 343.5H448.462V344.5H446.465V343.5ZM450.458 343.5H452.455V344.5H450.458V343.5ZM454.451 343.5H456.448V344.5H454.451V343.5ZM458.445 343.5H460.441V344.5H458.445V343.5ZM462.438 343.5H464.434V344.5H462.438V343.5ZM466.431 343.5H468.427V344.5H466.431V343.5ZM470.424 343.5H472.421V344.5H470.424V343.5ZM474.417 343.5H476.414V344.5H474.417V343.5ZM478.41 343.5H480.407V344.5H478.41V343.5ZM482.404 343.5H484.4V344.5H482.404V343.5ZM486.397 343.5H488.393V344.5H486.397V343.5ZM490.39 343.5H492.387V344.5H490.39V343.5ZM494.383 343.5H496.38V344.5H494.383V343.5ZM498.376 343.5H500.373V344.5H498.376V343.5ZM502.369 343.5H504.366V344.5H502.369V343.5ZM506.363 343.5H508.359V344.5H506.363V343.5ZM510.356 343.5H512.352V344.5H510.356V343.5ZM514.349 343.5H516.345V344.5H514.349V343.5ZM518.342 343.5H520.339V344.5H518.342V343.5ZM522.335 343.5H524.332V344.5H522.335V343.5ZM526.328 343.5H528.325V344.5H526.328V343.5ZM530.321 343.5H532.318V344.5H530.321V343.5ZM534.315 343.5H536.311V344.5H534.315V343.5ZM538.308 343.5H540.305V344.5H538.308V343.5ZM542.301 343.5H544.298V344.5H542.301V343.5ZM546.294 343.5H548.291V344.5H546.294V343.5ZM550.287 343.5H552.284V344.5H550.287V343.5ZM554.281 343.5H556.277V344.5H554.281V343.5ZM558.274 343.5H560.27V344.5H558.274V343.5ZM562.267 343.5H564.263V344.5H562.267V343.5ZM566.26 343.5H568.257V344.5H566.26V343.5ZM570.253 343.5H572.25V344.5H570.253V343.5ZM574.246 343.5H576.243V344.5H574.246V343.5ZM578.24 343.5H580.236V344.5H578.24V343.5ZM582.233 343.5H584.229V344.5H582.233V343.5ZM586.226 343.5H588.222V344.5H586.226V343.5ZM590.219 343.5H592.216V344.5H590.219V343.5ZM594.212 343.5H596.209V344.5H594.212V343.5ZM598.205 343.5H600.202V344.5H598.205V343.5ZM602.198 343.5H604.195V344.5H602.198V343.5ZM606.192 343.5H608.188V344.5H606.192V343.5ZM610.185 343.5H612.181V344.5H610.185V343.5ZM614.178 343.5H616.175V344.5H614.178V343.5ZM618.171 343.5H620.168V344.5H618.171V343.5ZM622.164 343.5H624.161V344.5H622.164V343.5ZM626.157 343.5H628.154V344.5H626.157V343.5ZM630.151 343.5H632.147V344.5H630.151V343.5ZM634.144 343.5H636.14V344.5H634.144V343.5ZM638.137 343.5H640.134V344.5H638.137V343.5ZM642.13 343.5H644.127V344.5H642.13V343.5ZM646.123 343.5H648.12V344.5H646.123V343.5ZM650.116 343.5H652.113V344.5H650.116V343.5ZM654.11 343.5H656.106V344.5H654.11V343.5ZM658.103 343.5H660.099V344.5H658.103V343.5ZM662.096 343.5H664.093V344.5H662.096V343.5ZM666.089 343.5H668.086V344.5H666.089V343.5ZM670.082 343.5H672.079V344.5H670.082V343.5ZM674.075 343.5H676.072V344.5H674.075V343.5ZM678.069 343.5H680.065V344.5H678.069V343.5ZM682.062 343.5H684.058V344.5H682.062V343.5ZM686.055 343.5H688.052V344.5H686.055V343.5ZM690.048 343.5H692.045V344.5H690.048V343.5ZM694.041 343.5H696.038V344.5H694.041V343.5ZM698.034 343.5H700.031V344.5H698.034V343.5ZM702.028 343.5H704.024V344.5H702.028V343.5ZM706.021 343.5H708.017V344.5H706.021V343.5ZM710.014 343.5H712.01V344.5H710.014V343.5ZM714.007 343.5H716.004V344.5H714.007V343.5ZM718 343.5H719.997V344.5H718V343.5ZM721.993 343.5H723.99V344.5H721.993V343.5ZM725.987 343.5H727.983V344.5H725.987V343.5ZM729.98 343.5H731.976V344.5H729.98V343.5ZM733.973 343.5H735.969V344.5H733.973V343.5ZM737.966 343.5H739.963V344.5H737.966V343.5ZM741.959 343.5H743.956V344.5H741.959V343.5ZM745.952 343.5H747.949V344.5H745.952V343.5ZM749.946 343.5H751.942V344.5H749.946V343.5ZM753.939 343.5H755.935V344.5H753.939V343.5ZM757.932 343.5H759.928V344.5H757.932V343.5ZM761.925 343.5H763.922V344.5H761.925V343.5ZM765.918 343.5H767.915V344.5H765.918V343.5ZM769.911 343.5H771.908V344.5H769.911V343.5ZM773.905 343.5H775.901V344.5H773.905V343.5ZM777.898 343.5H779.894V344.5H777.898V343.5ZM781.891 343.5H783.887V344.5H781.891V343.5ZM785.884 343.5H787.881V344.5H785.884V343.5ZM789.877 343.5H791.874V344.5H789.877V343.5ZM793.87 343.5H795.867V344.5H793.87V343.5ZM797.864 343.5H799.86V344.5H797.864V343.5ZM801.857 343.5H803.853V344.5H801.857V343.5ZM805.85 343.5H807.846V344.5H805.85V343.5ZM809.843 343.5H811.84V344.5H809.843V343.5ZM813.836 343.5H815.833V344.5H813.836V343.5ZM817.829 343.5H819.826V344.5H817.829V343.5ZM821.823 343.5H823.819V344.5H821.823V343.5ZM825.816 343.5H827.812V344.5H825.816V343.5ZM829.809 343.5H831.805V344.5H829.809V343.5ZM833.802 343.5H835.799V344.5H833.802V343.5ZM837.795 343.5H839.792V344.5H837.795V343.5ZM841.788 343.5H843.785V344.5H841.788V343.5ZM845.781 343.5H847.778V344.5H845.781V343.5ZM849.775 343.5H851.771V344.5H849.775V343.5ZM853.768 343.5H855.764V344.5H853.768V343.5ZM857.761 343.5H859.758V344.5H857.761V343.5ZM861.754 343.5H863.751V344.5H861.754V343.5ZM865.747 343.5H867.744V344.5H865.747V343.5ZM869.74 343.5H871.737V344.5H869.74V343.5ZM873.734 343.5H875.73V344.5H873.734V343.5ZM877.727 343.5H879.723V344.5H877.727V343.5ZM881.72 343.5H883.717V344.5H881.72V343.5ZM885.713 343.5H887.71V344.5H885.713V343.5ZM889.706 343.5H891.703V344.5H889.706V343.5ZM893.699 343.5H895.696V344.5H893.699V343.5ZM897.693 343.5H899.689V344.5H897.693V343.5ZM901.686 343.5H903.682V344.5H901.686V343.5ZM905.679 343.5H907.676V344.5H905.679V343.5ZM909.672 343.5H911.669V344.5H909.672V343.5ZM913.665 343.5H915.662V344.5H913.665V343.5ZM917.658 343.5H919.655V344.5H917.658V343.5ZM921.652 343.5H923.648V344.5H921.652V343.5ZM925.645 343.5H927.641V344.5H925.645V343.5ZM929.638 343.5H931.635V344.5H929.638V343.5ZM933.631 343.5H935.628V344.5H933.631V343.5ZM937.624 343.5H939.621V344.5H937.624V343.5ZM941.617 343.5H943.614V344.5H941.617V343.5ZM945.611 343.5H947.607V344.5H945.611V343.5ZM949.604 343.5H951.6V344.5H949.604V343.5ZM953.597 343.5H955.594V344.5H953.597V343.5ZM957.59 343.5H959.587V344.5H957.59V343.5ZM961.583 343.5H963.58V344.5H961.583V343.5ZM965.576 343.5H967.573V344.5H965.576V343.5ZM969.57 343.5H971.566V344.5H969.57V343.5ZM973.563 343.5H975.559V344.5H973.563V343.5ZM977.556 343.5H979.552V344.5H977.556V343.5ZM981.549 343.5H983.546V344.5H981.549V343.5ZM985.542 343.5H987.539V344.5H985.542V343.5ZM989.535 343.5H991.532V344.5H989.535V343.5ZM993.529 343.5H995.525V344.5H993.529V343.5ZM997.522 343.5H999.518V344.5H997.522V343.5ZM1001.51 343.5H1003.51V344.5H1001.51V343.5ZM1005.51 343.5H1007.5V344.5H1005.51V343.5ZM1009.5 343.5H1011.5V344.5H1009.5V343.5ZM1013.49 343.5H1015.49V344.5H1013.49V343.5ZM1017.49 343.5H1019.48V344.5H1017.49V343.5ZM1021.48 343.5H1023.48V344.5H1021.48V343.5ZM1025.47 343.5H1027.47V344.5H1025.47V343.5ZM1029.47 343.5H1031.46V344.5H1029.47V343.5ZM1033.46 343.5H1035.46V344.5H1033.46V343.5ZM1037.45 343.5H1039.45V344.5H1037.45V343.5ZM1041.45 343.5H1043.44V344.5H1041.45V343.5ZM1045.44 343.5H1047.44V344.5H1045.44V343.5ZM1049.43 343.5H1051.43V344.5H1049.43V343.5ZM1053.43 343.5H1055.42V344.5H1053.43V343.5ZM1057.42 343.5H1059.42V344.5H1057.42V343.5ZM1061.41 343.5H1063.41V344.5H1061.41V343.5ZM1065.41 343.5H1067.4V344.5H1065.41V343.5ZM1069.4 343.5H1071.4V344.5H1069.4V343.5ZM1073.39 343.5H1075.39V344.5H1073.39V343.5ZM1077.39 343.5H1079.38V344.5H1077.39V343.5ZM1081.38 343.5H1083.37V344.5H1081.38V343.5ZM1085.37 343.5H1087.37V344.5H1085.37V343.5ZM1089.36 343.5H1091.36V344.5H1089.36V343.5ZM1093.36 343.5H1095.35V344.5H1093.36V343.5ZM1097.35 343.5H1099.35V344.5H1097.35V343.5ZM1101.34 343.5H1103.34V344.5H1101.34V343.5ZM1105.34 343.5H1107.33V344.5H1105.34V343.5ZM1109.33 343.5H1111.33V344.5H1109.33V343.5ZM1113.32 343.5H1115.32V344.5H1113.32V343.5ZM1117.32 343.5H1119.31V344.5H1117.32V343.5ZM1121.31 343.5H1123.31V344.5H1121.31V343.5ZM1125.3 343.5H1127.3V344.5H1125.3V343.5ZM1129.3 343.5H1131.29V344.5H1129.3V343.5ZM1133.29 343.5H1135.29V344.5H1133.29V343.5ZM1137.28 343.5H1139.28V344.5H1137.28V343.5ZM1141.28 343.5H1143.27V344.5H1141.28V343.5ZM1145.27 343.5H1147.27V344.5H1145.27V343.5ZM1149.26 343.5H1151.26V344.5H1149.26V343.5ZM1153.26 343.5H1155.25V344.5H1153.26V343.5ZM1157.25 343.5H1159.24V344.5H1157.25V343.5ZM1161.24 343.5H1163.24V344.5H1161.24V343.5ZM1165.23 343.5H1167.23V344.5H1165.23V343.5ZM1169.23 343.5H1171.22V344.5H1169.23V343.5ZM1173.22 343.5H1175.22V344.5H1173.22V343.5ZM1177.21 343.5H1179.21V344.5H1177.21V343.5ZM1181.21 343.5H1183.2V344.5H1181.21V343.5ZM1185.2 343.5H1187.2V344.5H1185.2V343.5ZM1189.19 343.5H1191.19V344.5H1189.19V343.5ZM1193.19 343.5H1195.18V344.5H1193.19V343.5ZM1197.18 343.5H1199.18V344.5H1197.18V343.5ZM1201.17 343.5H1203.17V344.5H1201.17V343.5ZM1205.17 343.5H1207.16V344.5H1205.17V343.5ZM1209.16 343.5H1211.16V344.5H1209.16V343.5ZM1213.15 343.5H1215.15V344.5H1213.15V343.5ZM1217.15 343.5H1219.14V344.5H1217.15V343.5ZM1221.14 343.5H1223.14V344.5H1221.14V343.5ZM1225.13 343.5H1227.13V344.5H1225.13V343.5ZM1229.12 343.5H1231.12V344.5H1229.12V343.5ZM1233.12 343.5H1235.11V344.5H1233.12V343.5ZM1237.11 343.5H1239.11V344.5H1237.11V343.5ZM1241.1 343.5H1243.1V344.5H1241.1V343.5ZM1245.1 343.5H1247.09V344.5H1245.1V343.5ZM1249.09 343.5H1251.09V344.5H1249.09V343.5ZM1253.08 343.5H1255.08V344.5H1253.08V343.5ZM1257.08 343.5H1259.07V344.5H1257.08V343.5ZM1261.07 343.5H1263.07V344.5H1261.07V343.5ZM1265.06 343.5H1267.06V344.5H1265.06V343.5ZM1269.06 343.5H1271.05V344.5H1269.06V343.5ZM1273.05 343.5H1275.05V344.5H1273.05V343.5ZM1277.04 343.5H1279.04V344.5H1277.04V343.5ZM1281.04 343.5H1283.03V344.5H1281.04V343.5ZM1285.03 343.5H1287.03V344.5H1285.03V343.5ZM1289.02 343.5H1291.02V344.5H1289.02V343.5ZM1293.02 343.5H1295.01V344.5H1293.02V343.5ZM1297.01 343.5H1299.01V344.5H1297.01V343.5Z" fill="white" fill-opacity="0.2"/>
</svg>
