<svg width="225" height="864" viewBox="0 0 225 864" fill="none" xmlns="http://www.w3.org/2000/svg">
<path d="M235.448 854.504C206.001 867.516 171.979 864.877 143.089 851.777C112.409 837.925 89.1736 812.53 73.8058 783.035C37.135 712.66 47.255 629.632 51.8932 553.472C54.4816 511.034 57.07 468.596 59.6624 426.195C60.9773 404.993 62.2508 383.757 63.5657 362.554C64.7184 343.714 66.2461 324.832 66.1447 305.976C66.0547 288.631 64.6449 271.012 59.3945 254.375C54.0864 237.556 44.7095 223.823 32.1527 211.567C21.1655 200.844 8.75686 190.312 3.11213 175.646C-2.85052 160.145 0.596565 142.872 8.91525 128.891C18.0345 113.538 32.5135 102.483 47.3496 92.9784C63.86 82.4607 80.9093 72.7166 98.07 63.301C133.001 44.139 169.008 26.8646 205.846 11.6558C215.184 7.81139 224.571 4.07505 234.012 0.484114C237.4 -0.827037 239.486 4.43017 236.098 5.74138C199.615 19.6641 163.833 35.5151 129.053 53.2619C111.54 62.2242 94.2248 71.6187 77.2332 81.5455C61.2729 90.8316 44.7297 99.9915 30.7054 112.093C17.4832 123.541 6.64656 139.155 5.7762 157.096C4.97631 173.932 15.1554 187.012 26.5033 198.263C37.764 209.411 49.2065 219.783 56.9156 233.885C64.8191 248.383 68.7457 264.709 70.5474 281.037C72.3895 297.739 72.0103 314.606 71.1648 331.372C70.176 351.026 68.804 370.647 67.6237 390.285C65.111 431.316 62.5983 472.347 60.0857 513.378C57.6157 554.102 54.279 594.882 53.1837 635.684C52.1434 673.834 54.071 712.759 65.9521 749.324C76.2621 781.181 94.0928 811.696 121.17 832.252C146.386 851.383 179.574 861.41 211.136 856.034C218.811 854.714 226.265 852.396 233.363 849.247C236.734 847.787 238.782 853.048 235.448 854.504Z" fill="url(#paint0_linear_6_750)"/>
<defs>
<linearGradient id="paint0_linear_6_750" x1="167.697" y1="866.506" x2="13.6167" y2="-9.10543" gradientUnits="userSpaceOnUse">
<stop stop-color="#63A5FF"/>
<stop offset="0.333333" stop-color="#ED30FF"/>
<stop offset="0.65625" stop-color="#FF4A64"/>
<stop offset="1" stop-color="#F5FF8C"/>
</linearGradient>
</defs>
</svg>
