<svg width="113" height="13" viewBox="0 0 113 13" fill="none" xmlns="http://www.w3.org/2000/svg">
<path d="M0.617188 8.26444H4.36077C4.40307 8.53939 4.53526 8.78262 4.75734 8.99412C4.98999 9.19505 5.30195 9.35367 5.69323 9.47C6.08451 9.57575 6.54453 9.62862 7.07328 9.62862C7.80296 9.62862 8.36873 9.54402 8.77059 9.37482C9.18301 9.20562 9.38923 8.94653 9.38923 8.59755C9.38923 8.35433 9.2729 8.15869 9.04025 8.01063C8.8076 7.85201 8.34758 7.74626 7.6602 7.69338L5.56633 7.51889C3.85317 7.39199 2.61059 7.02186 1.83861 6.40851C1.0772 5.78458 0.696501 4.94914 0.696501 3.90221C0.696501 3.04563 0.945015 2.33181 1.44204 1.76075C1.93907 1.17912 2.63174 0.740256 3.52005 0.444154C4.40836 0.148051 5.45529 0 6.66085 0C7.82411 0 8.85519 0.163914 9.75407 0.491741C10.6635 0.819569 11.3826 1.28487 11.9114 1.88765C12.4507 2.47986 12.7468 3.17253 12.7997 3.96566H9.05611C9.01381 3.73301 8.8922 3.53208 8.69127 3.36288C8.50092 3.1831 8.22597 3.04563 7.86642 2.95045C7.50686 2.85527 7.07857 2.80769 6.58154 2.80769C5.92589 2.80769 5.40242 2.887 5.01114 3.04563C4.63044 3.20425 4.44008 3.44219 4.44008 3.75945C4.44008 3.9921 4.55112 4.18245 4.7732 4.3305C5.00585 4.47855 5.42886 4.57902 6.04221 4.63189L8.34229 4.82224C9.4844 4.90684 10.4044 5.08662 11.1024 5.36157C11.8109 5.62595 12.3238 5.99079 12.6411 6.4561C12.9583 6.91082 13.117 7.48717 13.117 8.18512C13.117 9.03113 12.8631 9.77668 12.3555 10.4218C11.8479 11.0563 11.1341 11.5533 10.2141 11.9128C9.30463 12.2618 8.23654 12.4363 7.00983 12.4363C5.7514 12.4363 4.6463 12.2618 3.69454 11.9128C2.74278 11.5639 1.99724 11.0774 1.45791 10.4535C0.918578 9.81898 0.638338 9.08929 0.617188 8.26444Z" fill="white"/>
<path d="M14.6782 0.269664H18.3742V12.1666H14.6782V0.269664ZM23.942 0.269664H27.638V12.1666H23.942V0.269664ZM16.7562 4.47326H25.4331V7.74097H16.7562V4.47326Z" fill="white"/>
<path d="M36.3666 12.4363C34.939 12.4363 33.6858 12.1772 32.6072 11.659C31.5391 11.1409 30.7037 10.4165 30.1009 9.48586C29.5087 8.55525 29.2126 7.46602 29.2126 6.21816C29.2126 4.97029 29.5087 3.88106 30.1009 2.95045C30.7037 2.01984 31.5391 1.29545 32.6072 0.777269C33.6858 0.259089 34.939 0 36.3666 0C37.7943 0 39.0421 0.259089 40.1102 0.777269C41.1889 1.29545 42.0243 2.01984 42.6165 2.95045C43.2193 3.88106 43.5207 4.97029 43.5207 6.21816C43.5207 7.46602 43.2193 8.55525 42.6165 9.48586C42.0243 10.4165 41.1889 11.1409 40.1102 11.659C39.0421 12.1772 37.7943 12.4363 36.3666 12.4363ZM36.3666 9.15274C37.0752 9.15274 37.6832 9.03642 38.1908 8.80377C38.709 8.56054 39.1056 8.22214 39.3805 7.78856C39.6555 7.3444 39.793 6.82094 39.793 6.21816C39.793 5.61538 39.6555 5.0972 39.3805 4.66362C39.1056 4.21946 38.709 3.88106 38.1908 3.64841C37.6832 3.40518 37.0752 3.28357 36.3666 3.28357C35.6581 3.28357 35.0447 3.40518 34.5266 3.64841C34.019 3.88106 33.6277 4.21946 33.3527 4.66362C33.0778 5.0972 32.9403 5.61538 32.9403 6.21816C32.9403 6.82094 33.0778 7.3444 33.3527 7.78856C33.6277 8.22214 34.019 8.56054 34.5266 8.80377C35.0447 9.03642 35.6581 9.15274 36.3666 9.15274Z" fill="white"/>
<path d="M51.8918 0.269664C52.9282 0.269664 53.8165 0.444153 54.5567 0.793132C55.3076 1.14211 55.8786 1.63385 56.2699 2.26836C56.6612 2.89229 56.8568 3.63255 56.8568 4.48913C56.8568 5.33514 56.6612 6.07539 56.2699 6.7099C55.8786 7.3444 55.3076 7.83615 54.5567 8.18512C53.8165 8.5341 52.9282 8.70859 51.8918 8.70859H46.7999V5.78986H51.6539C52.1192 5.78986 52.4787 5.67354 52.7325 5.44089C52.9969 5.20823 53.1291 4.89098 53.1291 4.48913C53.1291 4.06612 52.9969 3.74358 52.7325 3.52151C52.4787 3.29943 52.1192 3.18839 51.6539 3.18839H47.1172L48.7827 1.50695V12.1666H45.0867V0.269664H51.8918Z" fill="white"/>
<path d="M65.0868 10.4852H63.5481L67.9579 0.269664H71.8284L66.3717 12.1666H62.1681L56.7113 0.269664H60.6611L65.0868 10.4852Z" fill="white"/>
<path d="M76.5424 1.87179H80.2384V12.1666H76.5424V1.87179ZM72.1325 0.269664H84.6482V3.55323H72.1325V0.269664Z" fill="white"/>
<path d="M92.2112 12.4363C90.7835 12.4363 89.5304 12.1772 88.4517 11.659C87.3837 11.1409 86.5482 10.4165 85.9454 9.48586C85.3532 8.55525 85.0571 7.46602 85.0571 6.21816C85.0571 4.97029 85.3532 3.88106 85.9454 2.95045C86.5482 2.01984 87.3837 1.29545 88.4517 0.777269C89.5304 0.259089 90.7835 0 92.2112 0C93.6388 0 94.8867 0.259089 95.9548 0.777269C97.0334 1.29545 97.8689 2.01984 98.4611 2.95045C99.0639 3.88106 99.3652 4.97029 99.3652 6.21816C99.3652 7.46602 99.0639 8.55525 98.4611 9.48586C97.8689 10.4165 97.0334 11.1409 95.9548 11.659C94.8867 12.1772 93.6388 12.4363 92.2112 12.4363ZM92.2112 9.15274C92.9197 9.15274 93.5278 9.03642 94.0354 8.80377C94.5536 8.56054 94.9501 8.22214 95.2251 7.78856C95.5 7.3444 95.6375 6.82094 95.6375 6.21816C95.6375 5.61538 95.5 5.0972 95.2251 4.66362C94.9501 4.21946 94.5536 3.88106 94.0354 3.64841C93.5278 3.40518 92.9197 3.28357 92.2112 3.28357C91.5026 3.28357 90.8893 3.40518 90.3711 3.64841C89.8635 3.88106 89.4722 4.21946 89.1973 4.66362C88.9223 5.0972 88.7849 5.61538 88.7849 6.21816C88.7849 6.82094 88.9223 7.3444 89.1973 7.78856C89.4722 8.22214 89.8635 8.56054 90.3711 8.80377C90.8893 9.03642 91.5026 9.15274 92.2112 9.15274Z" fill="white"/>
<path d="M107.736 0.269664C108.773 0.269664 109.661 0.444153 110.401 0.793132C111.152 1.14211 111.723 1.63385 112.114 2.26836C112.506 2.89229 112.701 3.63255 112.701 4.48913C112.701 5.33514 112.506 6.07539 112.114 6.7099C111.723 7.3444 111.152 7.83615 110.401 8.18512C109.661 8.5341 108.773 8.70859 107.736 8.70859H102.644V5.78986H107.498C107.964 5.78986 108.323 5.67354 108.577 5.44089C108.841 5.20823 108.974 4.89098 108.974 4.48913C108.974 4.06612 108.841 3.74358 108.577 3.52151C108.323 3.29943 107.964 3.18839 107.498 3.18839H102.962L104.627 1.50695V12.1666H100.931V0.269664H107.736Z" fill="white"/>
</svg>
