<svg width="340" height="464" viewBox="0 0 340 464" fill="none" xmlns="http://www.w3.org/2000/svg">
<path d="M146.542 0.231182C123.954 9.20261 102.95 21.584 84.1 36.8882C65.2902 52.1518 48.8366 70.257 35.3488 90.3514C21.3329 111.298 10.1201 134.803 4.06681 159.281C0.572974 173.449 -1.09273 188.225 0.776065 202.758C2.4011 215.383 6.74812 227.44 13.6139 238.197C26.5736 258.454 46.8866 273.149 68.9465 282.242C96.0846 293.447 125.945 296.126 154.992 297.181C185.137 298.277 215.566 297.425 245.385 302.58C270.208 306.883 293.486 315.855 314.165 330.306C333.137 343.581 349.388 360.793 361.738 380.319C374.088 399.805 382.62 421.645 386.235 444.459C387.089 449.939 387.657 455.5 387.901 461.062C388.104 464.959 394.198 465 393.995 461.062C392.898 438.045 386.845 415.555 376.81 394.852C366.816 374.23 352.76 355.475 335.859 340.009C318.918 324.501 299.052 312.201 277.398 304.529C249.813 294.705 220.116 292.797 191.068 292.026C161.371 291.214 131.348 291.62 102.097 285.734C77.153 280.74 52.9804 270.835 34.1706 253.298C25.6391 245.342 18.489 236.046 13.492 225.491C7.72313 213.272 5.61054 199.673 6.13868 186.236C7.19495 159.849 17.3109 133.747 29.9862 110.852C41.5646 89.9048 56.3118 70.7847 73.6185 54.2627C90.8845 37.7407 110.669 23.8167 132.12 13.2621C137.361 10.7046 142.683 8.30952 148.126 6.158C151.783 4.656 150.198 -1.23023 146.542 0.231182Z" fill="url(#paint0_linear_6_962)"/>
<defs>
<linearGradient id="paint0_linear_6_962" x1="-5.9763e-07" y1="287.68" x2="410.964" y2="294.819" gradientUnits="userSpaceOnUse">
<stop stop-color="#63A5FF"/>
<stop offset="0.333333" stop-color="#ED30FF"/>
<stop offset="0.65625" stop-color="#FF4A64"/>
<stop offset="1" stop-color="#F5FF8C"/>
</linearGradient>
</defs>
</svg>
