<svg width="420" height="241" viewBox="0 0 420 241" fill="none" xmlns="http://www.w3.org/2000/svg">
<path d="M244.707 1.97755C271.784 -4.17961 299.682 6.31983 320.676 23.3392C332.847 33.1741 343.152 45.0804 352.403 57.677C362.129 70.9243 370.939 84.8755 378.944 99.2554C395.077 128.165 408.293 159.36 416.755 191.409C419.787 202.84 421.766 216.254 415.771 227.069C408.623 239.919 393.177 242.205 379.861 240.084C366.255 237.903 353.07 232.311 340.644 226.443C328.287 220.625 316.446 213.757 305.016 206.283C281.861 191.19 260.382 173.826 238.442 157.052C216.659 140.41 194.308 124.157 169.86 111.647C145.998 99.4282 120.193 90.9998 93.8057 86.3265C67.6572 81.6981 40.7201 80.7623 14.3222 83.5868C-12.1943 86.4313 -38.4287 92.9577 -63.051 103.319C-69.1059 105.855 -75.0358 108.627 -80.892 111.617C-84.1477 113.266 -86.8613 108.252 -83.5721 106.586C-60.0802 94.5884 -34.815 86.0809 -8.89445 81.2287C17.0261 76.3764 43.685 75.0924 69.944 77.4228C96.1003 79.7219 121.991 85.5639 146.53 95.0112C171.67 104.698 194.82 118.329 216.763 133.896C238.947 149.593 259.947 166.867 281.769 183.015C303.296 198.932 325.804 214.025 350.492 224.642C362.869 229.932 376.476 235.429 390.171 235.109C396.882 234.935 403.563 232.926 408.226 227.859C411.93 223.819 413.525 218.405 413.862 213.058C414.25 206.996 413.245 200.986 411.835 195.106C410.063 187.74 407.751 180.489 405.338 173.292C400.139 157.633 394.03 142.286 386.998 127.388C379.928 112.338 371.935 97.7364 363.138 83.649C354.822 70.3822 345.884 57.4035 335.549 45.6C317.366 24.8868 293.203 7.57535 264.819 5.94588C258.469 5.58301 252.14 6.06961 245.953 7.47057C242.423 8.36087 241.141 2.80078 244.707 1.97755Z" fill="url(#paint0_linear_6_961)"/>
<defs>
<linearGradient id="paint0_linear_6_961" x1="215.252" y1="338.378" x2="40.6132" y2="23.5905" gradientUnits="userSpaceOnUse">
<stop stop-color="#63A5FF"/>
<stop offset="0.333333" stop-color="#ED30FF"/>
<stop offset="0.65625" stop-color="#FF4A64"/>
<stop offset="1" stop-color="#F5FF8C"/>
</linearGradient>
</defs>
</svg>
