<svg width="1441" height="16" viewBox="0 0 1441 16" fill="none" xmlns="http://www.w3.org/2000/svg">
<path d="M1428.77 12.8012L1416.96 0.993164L1405.15 12.8012L1393.34 0.993164L1381.54 12.8012L1369.73 0.993164L1357.92 12.8012L1346.11 0.993164L1334.3 12.8012L1322.5 0.993164L1310.69 12.8012L1298.88 0.993164L1287.07 12.8012L1275.26 0.993164L1263.46 12.8012L1251.65 0.993164L1239.84 12.8012L1228.03 0.993164L1216.22 12.8012L1204.42 0.993164L1192.61 12.8012L1180.8 0.993164L1168.99 12.8012L1157.18 0.993164L1145.38 12.8012L1133.57 0.993164L1121.76 12.8012L1109.95 0.993164L1098.14 12.8012L1086.34 0.993164L1074.53 12.8012L1062.72 0.993164L1050.91 12.8012L1039.1 0.993164L1027.3 12.8012L1015.49 0.993164L1003.68 12.8012L991.872 0.993164L980.064 12.8012L968.256 0.993164L956.448 12.8012L944.64 0.993164L932.832 12.8012L921.024 0.993164L909.216 12.8012L897.408 0.993164L885.6 12.8012L873.792 0.993164L861.984 12.8012L850.176 0.993164L838.368 12.8012L826.56 0.993164L814.752 12.8012L802.944 0.993164L791.136 12.8012L779.328 0.993164L767.52 12.8012L755.712 0.993164L743.904 12.8012L732.096 0.993164L720.288 12.8012L708.48 0.993164L696.672 12.8012L684.864 0.993164L673.056 12.8012L661.248 0.993164L649.44 12.8012L637.632 0.993164L625.824 12.8012L614.016 0.993164L602.208 12.8012L590.4 0.993164L578.592 12.8012L566.784 0.993164L554.976 12.8012L543.168 0.993164L531.36 12.8012L519.552 0.993164L507.744 12.8012L495.936 0.993164L484.128 12.8012L472.32 0.993164L460.512 12.8012L448.704 0.993164L436.896 12.8012L425.088 0.993164L413.28 12.8012L401.472 0.993164L389.664 12.8012L377.856 0.993164L366.048 12.8012L354.24 0.993164L342.432 12.8012L330.624 0.993164L318.816 12.8012L307.008 0.993164L295.2 12.8012L283.392 0.993164L271.584 12.8012L259.776 0.993164L247.968 12.8012L236.16 0.993164L224.352 12.8012L212.544 0.993164L200.736 12.8012L188.928 0.993164L177.12 12.8012L165.312 0.993164L153.504 12.8012L141.696 0.993164L129.888 12.8012L118.08 0.993164L106.272 12.8012L94.464 0.993164L82.656 12.8012L70.848 0.993164L59.04 12.8012L47.232 0.993164L35.424 12.8012L23.616 0.993164L11.808 12.8012L0 0.993164V15.3932H1440.58V0.993164" fill="#1D1A32"/>
</svg>
