<svg width="420" height="280" viewBox="0 0 420 280" fill="none" xmlns="http://www.w3.org/2000/svg">
<path d="M37.9379 1.65225C24.9385 22.1881 15.2253 44.5511 8.97204 68.0129C2.72784 91.4179 0.0602583 115.737 0.961147 139.921C1.93592 165.106 6.68178 190.712 16.1743 214.073C21.6761 227.588 29.0147 240.521 39.0696 251.179C47.8056 260.437 58.4096 267.635 70.2876 272.302C92.6794 281.071 117.751 281.018 140.942 275.407C169.482 268.518 195.213 253.132 219.333 236.911C244.363 220.077 268.478 201.501 295.632 188.142C318.243 177.032 342.348 170.605 367.572 170.141C390.724 169.727 413.988 174.098 435.457 182.635C456.903 191.138 476.643 203.791 492.979 220.121C496.89 224.053 500.62 228.218 504.086 232.574C506.542 235.607 511.495 232.058 509.016 228.992C494.598 211.016 476.481 196.381 456.193 185.531C435.986 174.723 413.59 167.814 390.826 165.237C368.005 162.65 344.703 164.378 322.676 170.9C294.585 179.168 269.439 195.082 245.487 211.533C220.985 228.334 196.936 246.311 169.812 258.744C146.698 269.368 121.32 275.564 95.7946 272.434C84.2157 271.013 72.9667 267.696 62.7198 262.095C50.8701 255.601 41.1669 245.841 33.6955 234.661C19.039 212.694 11.8786 185.631 8.6738 159.658C5.7271 135.906 6.41771 111.769 10.7061 88.2299C14.9617 64.7143 22.7822 41.8198 33.9307 20.6719C36.667 15.5222 39.5644 10.4562 42.7037 5.51557C44.7786 2.15114 40.0368 -1.67934 37.9379 1.65225Z" fill="url(#paint0_linear_6_1089)"/>
<defs>
<linearGradient id="paint0_linear_6_1089" x1="88.3622" y1="320.335" x2="425.02" y2="84.5298" gradientUnits="userSpaceOnUse">
<stop stop-color="#63A5FF"/>
<stop offset="0.333333" stop-color="#ED30FF"/>
<stop offset="0.65625" stop-color="#FF4A64"/>
<stop offset="1" stop-color="#F5FF8C"/>
</linearGradient>
</defs>
</svg>
