<svg width="387" height="241" viewBox="0 0 387 241" fill="none" xmlns="http://www.w3.org/2000/svg">
<path d="M211.707 1.97658C238.784 -4.18059 266.682 6.31885 287.676 23.3382C299.847 33.1731 310.152 45.0794 319.403 57.676C329.129 70.9234 337.939 84.8745 345.944 99.2544C362.077 128.164 375.293 159.359 383.755 191.408C386.787 202.839 388.766 216.253 382.771 227.068C375.623 239.918 360.177 242.204 346.861 240.083C333.255 237.902 320.07 232.31 307.644 226.442C295.287 220.624 283.446 213.756 272.016 206.282C248.861 191.189 227.382 173.825 205.442 157.051C183.659 140.409 161.308 124.156 136.86 111.646C112.998 99.4273 87.1932 90.9988 60.8057 86.3256C34.6572 81.6971 7.72014 80.7613 -18.6778 83.5858C-45.1943 86.4303 -71.4287 92.9567 -96.051 103.318C-102.106 105.854 -108.036 108.626 -113.892 111.616C-117.148 113.265 -119.861 108.251 -116.572 106.585C-93.0802 94.5874 -67.815 86.0799 -41.8944 81.2277C-15.9739 76.3755 10.685 75.0914 36.944 77.4218C63.1003 79.7209 88.991 85.563 113.53 95.0102C138.67 104.697 161.82 118.328 183.763 133.895C205.947 149.592 226.947 166.866 248.769 183.014C270.296 198.931 292.804 214.024 317.492 224.641C329.869 229.931 343.476 235.428 357.171 235.108C363.882 234.934 370.563 232.925 375.226 227.858C378.93 223.818 380.525 218.404 380.862 213.057C381.25 206.995 380.245 200.985 378.835 195.106C377.063 187.739 374.751 180.488 372.338 173.291C367.139 157.632 361.03 142.285 353.998 127.387C346.928 112.337 338.935 97.7355 330.138 83.648C321.822 70.3812 312.884 57.4025 302.549 45.599C284.366 24.8858 260.203 7.57437 231.819 5.94491C225.469 5.58203 219.14 6.06864 212.953 7.4696C209.423 8.35989 208.141 2.79981 211.707 1.97658Z" fill="url(#paint0_linear_6_1088)"/>
<defs>
<linearGradient id="paint0_linear_6_1088" x1="182.252" y1="338.377" x2="7.6132" y2="23.5895" gradientUnits="userSpaceOnUse">
<stop stop-color="#63A5FF"/>
<stop offset="0.333333" stop-color="#ED30FF"/>
<stop offset="0.65625" stop-color="#FF4A64"/>
<stop offset="1" stop-color="#F5FF8C"/>
</linearGradient>
</defs>
</svg>
