<svg width="1440" height="307" viewBox="0 0 1440 307" fill="none" xmlns="http://www.w3.org/2000/svg">
<path fill-rule="evenodd" clip-rule="evenodd" d="M-11.4836 279.029L-11.4938 279.025C-21.6218 275.27 -29.7003 269.855 -35.567 262.698L-35.5764 262.686L-35.5857 262.675C-41.3599 255.486 -44.4687 247.055 -44.9353 237.49L-45.0887 234.344H-5.19062L-4.85173 236.958C-4.21216 241.892 -1.72675 245.638 2.86563 248.363C7.58369 251.052 14.4732 252.548 23.8252 252.548C32.6901 252.548 39.1504 251.364 43.4754 249.257C45.5713 248.181 46.9694 246.942 47.8504 245.61C48.7221 244.293 49.1972 242.723 49.1972 240.788C49.1972 239.179 48.8038 237.943 48.1222 236.947C47.4285 235.933 46.3033 234.976 44.544 234.164L44.5304 234.158L44.5169 234.151C41.0054 232.488 34.6963 231.488 25.1372 231.488H-0.330837V203.02H24.6452C30.1639 203.02 34.5055 202.541 37.7553 201.661C41.0273 200.664 43.1283 199.366 44.3789 197.959L44.409 197.925L44.4401 197.892C45.7913 196.461 46.4092 194.896 46.4092 193.064C46.4092 190.906 45.6883 189.243 44.2299 187.862L44.1711 187.806L44.1153 187.747C42.6567 186.208 40.3344 184.892 36.854 183.997L36.8041 183.985L36.7547 183.97C33.3947 182.982 29.1609 182.452 23.9892 182.452C15.4257 182.452 9.10045 183.941 4.72101 186.607L4.70049 186.619L4.67977 186.631C0.396091 189.146 -2.00101 192.647 -2.73108 197.301L-3.12874 199.836H-42.7319L-42.469 196.594C-41.7655 187.917 -38.7053 180.044 -33.3317 173.035L-33.3222 173.022L-33.3125 173.01C-27.7845 165.953 -19.9907 160.48 -10.1083 156.502C-0.139889 152.38 11.803 150.376 25.6292 150.376C37.564 150.376 48.1185 151.88 57.2406 154.956C66.3189 157.909 73.5794 162.179 78.8225 167.889C84.2429 173.561 87.0132 180.302 87.0132 187.98C87.0132 194.205 85.1082 199.904 81.357 204.994C78.2917 209.278 73.8185 212.711 68.1244 215.388C74.2542 217.475 79.2834 220.466 83.0722 224.454C87.8323 229.464 90.1292 235.873 90.1292 243.412C90.1292 251.575 87.4051 258.874 82.036 265.198L82.0269 265.208L82.0177 265.219C76.6604 271.41 68.9957 276.138 59.2533 279.537C49.4413 282.959 37.6057 284.624 23.8252 284.624C10.544 284.624 -1.24378 282.783 -11.4836 279.029ZM63.6024 214.06C70.6038 211.344 75.7127 207.735 78.9292 203.232C82.3185 198.64 84.0132 193.556 84.0132 187.98C84.0132 181.092 81.5532 175.079 76.6332 169.94C71.8225 164.692 65.0438 160.647 56.2972 157.804C47.5505 154.852 37.3278 153.376 25.6292 153.376C12.0718 153.376 0.537163 155.344 -8.97483 159.28C-18.4868 163.107 -25.8122 168.3 -30.9508 174.86C-35.3511 180.599 -38.0775 186.925 -39.1301 193.836C-39.2805 194.824 -39.3968 195.824 -39.4788 196.836H-5.69484C-4.82017 191.26 -1.86817 186.996 3.16117 184.044C8.1905 180.983 15.1332 179.452 23.9892 179.452C29.3465 179.452 33.8838 179.999 37.6012 181.092C41.4278 182.076 44.3252 183.607 46.2932 185.684C48.3705 187.652 49.4092 190.112 49.4092 193.064C49.4092 195.688 48.4798 197.984 46.6212 199.952C44.8718 201.92 42.1932 203.451 38.5852 204.544C34.9772 205.528 30.3305 206.02 24.6452 206.02H2.66916V228.488H25.1372C34.7585 228.488 41.6465 229.472 45.8012 231.44C50.0652 233.408 52.1972 236.524 52.1972 240.788C52.1972 245.708 49.7372 249.425 44.8172 251.94C39.8972 254.345 32.8998 255.548 23.8252 255.548C14.2038 255.548 6.7145 254.017 1.35717 250.956C-4.00017 247.785 -7.0615 243.248 -7.82684 237.344H-41.9388C-41.8893 238.359 -41.8083 239.359 -41.6958 240.344C-40.8141 248.064 -37.9978 254.881 -33.2468 260.796C-27.7802 267.465 -20.1815 272.604 -10.4508 276.212C-0.610832 279.82 10.8145 281.624 23.8252 281.624C37.3825 281.624 48.8625 279.984 58.2652 276.704C67.6678 273.424 74.8292 268.941 79.7492 263.256C84.6692 257.461 87.1292 250.847 87.1292 243.412C87.1292 236.524 85.0518 230.893 80.8972 226.52C76.878 222.289 71.1705 219.184 63.7747 217.204C63.5255 217.138 63.2743 217.072 63.0212 217.008C61.3718 216.584 59.6513 216.218 57.8597 215.911C59.751 215.422 61.5262 214.858 63.1852 214.22C63.325 214.167 63.464 214.114 63.6024 214.06ZM146.223 227.996H186.208L166.251 181.8L146.223 227.996ZM166.246 189.354L150.794 224.996H181.644L166.246 189.354ZM134.35 255.384L124.111 279H87.8672L143.791 156H188.563L244.487 279H208.243L198.04 255.384H134.35ZM136.319 258.384L126.08 282H83.2076L141.86 153H190.495L249.147 282H206.271L196.069 258.384H136.319ZM247.356 230.458L247.344 230.445C237.43 220.532 232.689 206.435 232.689 188.636V153H272.637V185.848C272.637 193.952 274.83 199.538 278.732 203.167C282.668 206.828 288.853 208.924 297.845 208.924C303.084 208.924 308.618 208.348 314.451 207.183C318.188 206.367 321.93 205.332 325.677 204.078V153H365.789V282H325.677V238.979C322.012 240.262 318.202 241.348 314.248 242.239C306.263 244.038 298.06 244.936 289.645 244.936C271.647 244.936 257.395 240.26 247.369 230.47L247.356 230.458ZM325.677 235.795C326.689 235.428 327.689 235.045 328.677 234.647V279H362.789V156H328.677V206.216C327.677 206.572 326.677 206.912 325.677 207.237C322.139 208.387 318.602 209.348 315.065 210.12C309.051 211.323 303.311 211.924 297.845 211.924C288.442 211.924 281.39 209.737 276.689 205.364C271.987 200.991 269.637 194.485 269.637 185.848V156H235.689V188.636C235.689 205.911 240.281 219.14 249.465 228.324C258.758 237.399 272.151 241.936 289.645 241.936C297.845 241.936 305.826 241.061 313.589 239.312C317.795 238.364 321.824 237.192 325.677 235.795ZM493.667 202.2V232.8H424.303L421.756 248.448H499.079V282H378.28L388.084 217.5L378.28 153H498.259V186.552H421.756L424.303 202.2H493.667ZM421.752 205.2H490.667V229.8H421.752L418.228 251.448H496.079V279H381.771L391.119 217.5L381.771 156H495.259V183.552H418.228L421.752 205.2ZM698.494 153V282H660.186V200.156L624.813 282H586.435L551.058 200.668V282H512.75V153H570.228L605.751 238.044L641.01 153H698.494ZM605.761 245.852L568.23 156H515.75V279H548.058V186.25L588.402 279H622.842L663.186 185.652V279H695.494V156H643.014L605.761 245.852ZM756.187 282V153H795.643V235.393L851.403 153H900.439V282H860.819V197.887L803.911 282H756.187ZM863.819 188.099V279H897.439V156H852.995L792.643 245.179V156H759.187V279H802.319L863.819 188.099ZM908.62 306.764V245.988H925.82C929.199 241.462 931.833 235.447 933.625 227.811C935.635 219.139 936.664 208.34 936.664 195.36C936.664 189.419 936.448 183.199 936.015 176.7C935.58 170.183 934.983 163.391 934.221 156.321L933.864 153H1060.42V245.988H1081.57V306.764H1043.76V282H946.436V306.764H908.62ZM943.436 279H1046.76V303.764H1078.57V248.988H1057.42V156H937.204C937.312 157.005 937.417 158.005 937.519 159C938.136 165.035 938.633 170.868 939.008 176.5C939.445 183.06 939.664 189.347 939.664 195.36C939.664 208.48 938.625 219.523 936.548 228.488C934.908 235.48 932.552 241.313 929.481 245.988C928.837 246.969 928.161 247.899 927.453 248.778C927.397 248.848 927.34 248.918 927.283 248.988H911.62V303.764H943.436V279ZM1023.3 249.316V185.684H970.687C970.747 186.691 970.791 187.691 970.817 188.684C970.819 188.777 970.822 188.871 970.824 188.964C971.043 193.665 971.152 198.148 971.152 202.412C971.152 215.204 970.004 225.973 967.708 234.72C966.606 239.126 965.213 242.992 963.529 246.316C962.995 247.37 962.431 248.37 961.838 249.316H1023.3ZM966.864 246.316H1020.3V188.684H973.818C973.82 188.743 973.821 188.801 973.822 188.86C974.042 193.59 974.152 198.108 974.152 202.412C974.152 215.356 972.993 226.394 970.614 235.465C969.615 239.456 968.371 243.082 966.864 246.316ZM1158.56 186.176V279H1124.45V186.176H1077.54V156H1205.46V186.176H1158.56ZM1121.45 189.176H1074.54V153H1208.46V189.176H1161.56V282H1121.45V189.176ZM1217.12 282V153H1256.57V235.393L1312.33 153H1361.37V282H1321.75V197.887L1264.84 282H1217.12ZM1263.25 279H1220.12V156H1253.57V245.179L1313.92 156H1358.37V279H1324.75V188.099L1263.25 279ZM1372.81 193.18C1374.25 181.162 1379.51 171.666 1388.61 164.692C1398.56 157.148 1411.84 153.376 1428.46 153.376C1445.19 153.376 1458.2 156.711 1467.49 163.38C1476.9 169.94 1481.6 179.233 1481.6 191.26C1481.6 197.164 1479.96 202.467 1476.68 207.168C1473.4 211.869 1468.42 215.751 1461.75 218.812L1447.81 225.372C1445.3 226.575 1443.39 227.941 1442.07 229.472C1440.76 231.003 1440.11 232.916 1440.11 235.212V237.836H1410.91C1410.59 236.743 1410.37 235.759 1410.26 234.884C1410.15 233.9 1410.09 232.971 1410.09 232.096C1410.09 227.067 1411.52 222.639 1414.36 218.812C1417.2 214.876 1421.85 211.432 1428.3 208.48L1441.09 202.74C1443.82 201.428 1445.9 199.952 1447.32 198.312C1448.74 196.563 1449.45 194.649 1449.45 192.572C1449.45 188.417 1447.65 185.192 1444.04 182.896C1440.43 180.491 1435.24 179.288 1428.46 179.288C1421.46 179.288 1415.89 180.819 1411.73 183.88C1407.69 186.832 1405.28 190.932 1404.52 196.18H1372.54C1372.6 195.163 1372.7 194.163 1372.81 193.18ZM1445.02 196.383C1446.03 195.132 1446.45 193.887 1446.45 192.572C1446.45 189.479 1445.2 187.192 1442.43 185.427L1442.4 185.41L1442.38 185.392C1439.47 183.452 1434.96 182.288 1428.46 182.288C1421.88 182.288 1417 183.728 1413.51 186.295L1413.5 186.303C1410.15 188.75 1408.14 192.11 1407.49 196.613L1407.11 199.18H1369.34L1369.54 195.985C1370.47 181.759 1376.19 170.431 1386.78 162.311L1386.79 162.306L1386.8 162.301C1397.42 154.249 1411.4 150.376 1428.46 150.376C1445.53 150.376 1459.24 153.77 1469.23 160.931C1479.47 168.083 1484.6 178.317 1484.6 191.26C1484.6 197.758 1482.78 203.664 1479.14 208.885C1475.48 214.128 1470.03 218.311 1463.02 221.533C1463.01 221.535 1463.01 221.537 1463.01 221.538L1449.11 228.078C1449.11 228.08 1449.1 228.081 1449.1 228.083C1446.83 229.168 1445.31 230.309 1444.35 231.424C1443.57 232.336 1443.11 233.526 1443.11 235.212V240.836H1408.68L1408.04 238.698C1407.68 237.489 1407.42 236.337 1407.28 235.256L1407.28 235.236L1407.28 235.215C1407.16 234.135 1407.09 233.095 1407.09 232.096C1407.09 226.467 1408.7 221.409 1411.94 217.039C1415.19 212.539 1420.34 208.823 1427.05 205.752L1427.06 205.747L1439.79 200.035C1439.8 200.03 1439.81 200.025 1439.82 200.02C1442.28 198.836 1443.96 197.599 1445.02 196.383ZM1409.54 278.091L1409.52 278.075C1405.46 274.273 1403.49 269.29 1403.49 263.42C1403.49 257.461 1405.44 252.416 1409.52 248.601L1409.54 248.585L1409.56 248.569C1413.7 244.81 1419 243.036 1425.18 243.036C1431.36 243.036 1436.63 244.809 1440.68 248.601C1444.76 252.416 1446.71 257.461 1446.71 263.42C1446.71 269.29 1444.74 274.273 1440.68 278.075C1436.63 281.867 1431.36 283.64 1425.18 283.64C1419 283.64 1413.7 281.866 1409.56 278.107L1409.54 278.091ZM1411.57 275.884C1415.07 279.055 1419.61 280.64 1425.18 280.64C1430.76 280.64 1435.24 279.055 1438.63 275.884C1442.02 272.713 1443.71 268.559 1443.71 263.42C1443.71 258.172 1442.02 253.963 1438.63 250.792C1435.24 247.621 1430.76 246.036 1425.18 246.036C1419.61 246.036 1415.07 247.621 1411.57 250.792C1408.18 253.963 1406.49 258.172 1406.49 263.42C1406.49 268.559 1408.18 272.713 1411.57 275.884Z" fill="url(#paint0_linear_104_262)"/>
<path fill-rule="evenodd" clip-rule="evenodd" d="M-11.4836 129.029L-11.4938 129.025C-21.6218 125.27 -29.7003 119.855 -35.567 112.698L-35.5764 112.686L-35.5857 112.675C-41.3599 105.486 -44.4687 97.0547 -44.9353 87.4901L-45.0887 84.344H-5.19062L-4.85173 86.9583C-4.21216 91.8921 -1.72675 95.6383 2.86563 98.3627C7.58369 101.052 14.4732 102.548 23.8252 102.548C32.6901 102.548 39.1504 101.364 43.4754 99.2566C45.5713 98.1815 46.9694 96.9416 47.8504 95.6104C48.7221 94.2931 49.1972 92.7227 49.1972 90.788C49.1972 89.1795 48.8038 87.9431 48.1222 86.947C47.4285 85.9331 46.3033 84.9758 44.544 84.1638L44.5304 84.1576L44.5169 84.1512C41.0054 82.4878 34.6963 81.488 25.1372 81.488H-0.330837V53.02H24.6452C30.1639 53.02 34.5055 52.5412 37.7553 51.6607C41.0273 50.6638 43.1283 49.3659 44.3789 47.9589L44.409 47.925L44.4401 47.8921C45.7913 46.4615 46.4092 44.8956 46.4092 43.064C46.4092 40.9064 45.6883 39.2434 44.2299 37.8618L44.1711 37.8061L44.1153 37.7472C42.6567 36.2075 40.3344 34.8924 36.854 33.9975L36.8041 33.9846L36.7547 33.9701C33.3947 32.9818 29.1609 32.452 23.9892 32.452C15.4257 32.452 9.10045 33.9408 4.72101 36.6066L4.70049 36.6191L4.67977 36.6312C0.396091 39.1456 -2.00101 42.6467 -2.73108 47.3009L-3.12874 49.836H-42.7319L-42.469 46.5935C-41.7655 37.9165 -38.7053 30.0438 -33.3317 23.0347L-33.3222 23.0223L-33.3125 23.01C-27.7845 15.9529 -19.9907 10.4801 -10.1083 6.50229C-0.139889 2.38012 11.803 0.375977 25.6292 0.375977C37.564 0.375977 48.1185 1.87982 57.2406 4.95612C66.3189 7.90885 73.5794 12.1791 78.8225 17.8887C84.2429 23.5606 87.0132 30.3018 87.0132 37.98C87.0132 44.2055 85.1082 49.9044 81.357 54.9944C78.2917 59.2776 73.8185 62.7108 68.1244 65.3884C74.2542 67.4753 79.2834 70.4656 83.0722 74.4537C87.8323 79.4644 90.1292 85.8726 90.1292 93.412C90.1292 101.575 87.4051 108.874 82.036 115.198L82.0269 115.208L82.0177 115.219C76.6604 121.41 68.9957 126.138 59.2533 129.537C49.4413 132.959 37.6057 134.624 23.8252 134.624C10.544 134.624 -1.24378 132.783 -11.4836 129.029ZM63.6024 64.0601C70.6038 61.3444 75.7127 57.735 78.9292 53.232C82.3185 48.64 84.0132 43.556 84.0132 37.98C84.0132 31.092 81.5532 25.0786 76.6332 19.94C71.8225 14.692 65.0438 10.6466 56.2972 7.80398C47.5505 4.85198 37.3278 3.37598 25.6292 3.37598C12.0718 3.37598 0.537163 5.34398 -8.97483 9.27998C-18.4868 13.1066 -25.8122 18.3 -30.9508 24.86C-35.3511 30.5995 -38.0775 36.9248 -39.1301 43.836C-39.2805 44.824 -39.3968 45.824 -39.4788 46.836H-5.69484C-4.82017 41.26 -1.86817 36.996 3.16117 34.044C8.1905 30.9826 15.1332 29.452 23.9892 29.452C29.3465 29.452 33.8838 29.9986 37.6012 31.092C41.4278 32.076 44.3252 33.6066 46.2932 35.684C48.3705 37.652 49.4092 40.112 49.4092 43.064C49.4092 45.688 48.4798 47.984 46.6212 49.952C44.8718 51.92 42.1932 53.4506 38.5852 54.544C34.9772 55.528 30.3305 56.02 24.6452 56.02H2.66916V78.488H25.1372C34.7585 78.488 41.6465 79.472 45.8012 81.44C50.0652 83.408 52.1972 86.524 52.1972 90.788C52.1972 95.708 49.7372 99.4253 44.8172 101.94C39.8972 104.345 32.8998 105.548 23.8252 105.548C14.2038 105.548 6.7145 104.017 1.35717 100.956C-4.00017 97.7853 -7.0615 93.248 -7.82684 87.344H-41.9388C-41.8893 88.3587 -41.8083 89.3587 -41.6958 90.344C-40.8141 98.0642 -37.9978 104.881 -33.2468 110.796C-27.7802 117.465 -20.1815 122.604 -10.4508 126.212C-0.610832 129.82 10.8145 131.624 23.8252 131.624C37.3825 131.624 48.8625 129.984 58.2652 126.704C67.6678 123.424 74.8292 118.941 79.7492 113.256C84.6692 107.461 87.1292 100.847 87.1292 93.412C87.1292 86.524 85.0518 80.8933 80.8972 76.52C76.878 72.2892 71.1705 69.184 63.7747 67.2043C63.5255 67.1376 63.2743 67.0721 63.0212 67.008C61.3718 66.5838 59.6513 66.2181 57.8597 65.9108C59.751 65.4216 61.5262 64.8581 63.1852 64.22C63.325 64.167 63.464 64.1137 63.6024 64.0601ZM146.223 77.996H186.208L166.251 31.8003L146.223 77.996ZM166.246 39.3536L150.794 74.996H181.644L166.246 39.3536ZM134.35 105.384L124.111 129H87.8672L143.791 5.99997H188.563L244.487 129H208.243L198.04 105.384H134.35ZM136.319 108.384L126.08 132H83.2076L141.86 2.99997H190.495L249.147 132H206.271L196.069 108.384H136.319ZM247.356 80.4579L247.344 80.4453C237.43 70.5321 232.689 56.4348 232.689 38.636V2.99997H272.637V35.848C272.637 43.9517 274.83 49.5378 278.732 53.1674C282.668 56.8284 288.853 58.924 297.845 58.924C303.084 58.924 308.618 58.3484 314.451 57.1833C318.188 56.367 321.93 55.3323 325.677 54.0781V2.99997H365.789V132H325.677V88.9792C322.012 90.2615 318.202 91.3475 314.248 92.2386C306.263 94.0382 298.06 94.936 289.645 94.936C271.647 94.936 257.395 90.2602 247.369 80.4704L247.356 80.4579ZM325.677 85.7946C326.689 85.4275 327.689 85.045 328.677 84.6469V129H362.789V5.99997H328.677V56.2164C327.677 56.5717 326.677 56.912 325.677 57.2371C322.139 58.3873 318.602 59.3482 315.065 60.12C309.051 61.3226 303.311 61.924 297.845 61.924C288.442 61.924 281.39 59.7373 276.689 55.364C271.987 50.9906 269.637 44.4853 269.637 35.848V5.99997H235.689V38.636C235.689 55.9106 240.281 69.14 249.465 78.324C258.758 87.3986 272.151 91.936 289.645 91.936C297.845 91.936 305.826 91.0613 313.589 89.312C317.795 88.3642 321.824 87.1917 325.677 85.7946ZM493.667 52.2V82.8H424.303L421.756 98.448H499.079V132H378.28L388.084 67.5L378.28 2.99997H498.259V36.552H421.756L424.303 52.2H493.667ZM421.752 55.2H490.667V79.8H421.752L418.228 101.448H496.079V129H381.771L391.119 67.5L381.771 5.99997H495.259V33.552H418.228L421.752 55.2ZM698.494 2.99997V132H660.186V50.1556L624.813 132H586.435L551.058 50.6685V132H512.75V2.99997H570.228L605.751 88.0441L641.01 2.99997H698.494ZM605.761 95.8524L568.23 5.99997H515.75V129H548.058V36.2504L588.402 129H622.842L663.186 35.6523V129H695.494V5.99997H643.014L605.761 95.8524ZM756.187 132V2.99997H795.643V85.3933L851.403 2.99997H900.439V132H860.819V47.8872L803.911 132H756.187ZM863.819 38.0993V129H897.439V5.99997H852.995L792.643 95.179V5.99997H759.187V129H802.319L863.819 38.0993ZM908.62 156.764V95.988H925.82C929.199 91.4619 931.833 85.4472 933.625 77.8108C935.635 69.1393 936.664 58.3399 936.664 45.36C936.664 39.419 936.448 33.1992 936.015 26.6995C935.58 20.1835 934.983 13.3908 934.221 6.32119L933.864 2.99997H1060.42V95.988H1081.57V156.764H1043.76V132H946.436V156.764H908.62ZM943.436 129H1046.76V153.764H1078.57V98.988H1057.42V5.99997H937.204C937.312 7.00544 937.417 8.00544 937.519 8.99997C938.136 15.0348 938.633 20.8681 939.008 26.5C939.445 33.06 939.664 39.3466 939.664 45.36C939.664 58.48 938.625 69.5226 936.548 78.488C934.908 85.4799 932.552 91.3132 929.481 95.988C928.837 96.9688 928.161 97.8987 927.453 98.7775C927.397 98.848 927.34 98.9182 927.283 98.988H911.62V153.764H943.436V129ZM1023.3 99.316V35.684H970.687C970.747 36.6913 970.791 37.6913 970.817 38.684C970.819 38.7774 970.822 38.8707 970.824 38.964C971.043 43.6653 971.152 48.148 971.152 52.412C971.152 65.204 970.004 75.9733 967.708 84.72C966.606 89.1264 965.213 92.9917 963.529 96.316C962.995 97.3704 962.431 98.3704 961.838 99.316H1023.3ZM966.864 96.316H1020.3V38.684H973.818C973.82 38.7426 973.821 38.8012 973.822 38.8598C974.042 43.5901 974.152 48.1077 974.152 52.412C974.152 65.3562 972.993 76.394 970.614 85.4651C969.615 89.4564 968.371 93.0817 966.864 96.316ZM1158.56 36.176V129H1124.45V36.176H1077.54V5.99997H1205.46V36.176H1158.56ZM1121.45 39.176H1074.54V2.99997H1208.46V39.176H1161.56V132H1121.45V39.176ZM1217.12 132V2.99997H1256.57V85.3933L1312.33 2.99997H1361.37V132H1321.75V47.8871L1264.84 132H1217.12ZM1263.25 129H1220.12V5.99997H1253.57V95.1789L1313.92 5.99997H1358.37V129H1324.75V38.0992L1263.25 129ZM1372.81 43.18C1374.25 31.1615 1379.51 21.6655 1388.61 14.692C1398.56 7.14798 1411.84 3.37598 1428.46 3.37598C1445.19 3.37598 1458.2 6.71064 1467.49 13.38C1476.9 19.94 1481.6 29.2333 1481.6 41.26C1481.6 47.164 1479.96 52.4666 1476.68 57.168C1473.4 61.8693 1468.42 65.7506 1461.75 68.812L1447.81 75.372C1445.3 76.5746 1443.39 77.9413 1442.07 79.472C1440.76 81.0026 1440.11 82.916 1440.11 85.212V87.836H1410.91C1410.59 86.7427 1410.37 85.7586 1410.26 84.884C1410.15 83.9 1410.09 82.9706 1410.09 82.096C1410.09 77.0666 1411.52 72.6386 1414.36 68.812C1417.2 64.876 1421.85 61.432 1428.3 58.48L1441.09 52.74C1443.82 51.428 1445.9 49.952 1447.32 48.312C1448.74 46.5626 1449.45 44.6493 1449.45 42.572C1449.45 38.4173 1447.65 35.192 1444.04 32.896C1440.43 30.4906 1435.24 29.288 1428.46 29.288C1421.46 29.288 1415.89 30.8186 1411.73 33.88C1407.69 36.832 1405.28 40.932 1404.52 46.18H1372.54C1372.6 45.1631 1372.7 44.1631 1372.81 43.18ZM1445.02 46.3832C1446.03 45.1324 1446.45 43.8871 1446.45 42.572C1446.45 39.479 1445.2 37.1919 1442.43 35.427L1442.4 35.4098L1442.38 35.3921C1439.47 33.4523 1434.96 32.288 1428.46 32.288C1421.88 32.288 1417 33.7282 1413.51 36.2951L1413.5 36.3034C1410.15 38.7497 1408.14 42.1102 1407.49 46.6129L1407.11 49.18H1369.34L1369.54 45.9853C1370.47 31.7587 1376.19 20.4308 1386.78 12.3112L1386.79 12.3063L1386.8 12.3015C1397.42 4.24905 1411.4 0.375977 1428.46 0.375977C1445.53 0.375977 1459.24 3.76991 1469.23 10.9311C1479.47 18.0835 1484.6 28.3166 1484.6 41.26C1484.6 47.7583 1482.78 53.6639 1479.14 58.8845C1475.48 64.1278 1470.03 68.3107 1463.02 71.5329C1463.01 71.5347 1463.01 71.5366 1463.01 71.5385L1449.11 78.0784C1449.11 78.0798 1449.1 78.0813 1449.1 78.0827C1446.83 79.1685 1445.31 80.3089 1444.35 81.4243C1443.57 82.3361 1443.11 83.5264 1443.11 85.212V90.836H1408.68L1408.04 88.698C1407.68 87.4886 1407.42 86.3368 1407.28 85.2561L1407.28 85.2357L1407.28 85.2153C1407.16 84.1353 1407.09 83.0946 1407.09 82.096C1407.09 76.4669 1408.7 71.4088 1411.94 67.0389C1415.19 62.5394 1420.34 58.8233 1427.05 55.7521L1427.06 55.7474L1439.79 50.0354C1439.8 50.0301 1439.81 50.0248 1439.82 50.0195C1442.28 48.8359 1443.96 47.5986 1445.02 46.3832ZM1409.54 128.091L1409.52 128.075C1405.46 124.273 1403.49 119.29 1403.49 113.42C1403.49 107.461 1405.44 102.416 1409.52 98.6012L1409.54 98.585L1409.56 98.569C1413.7 94.81 1419 93.036 1425.18 93.036C1431.36 93.036 1436.63 94.8094 1440.68 98.6012C1444.76 102.416 1446.71 107.461 1446.71 113.42C1446.71 119.29 1444.74 124.273 1440.68 128.075C1436.63 131.867 1431.36 133.64 1425.18 133.64C1419 133.64 1413.7 131.866 1409.56 128.107L1409.54 128.091ZM1411.57 125.884C1415.07 129.055 1419.61 130.64 1425.18 130.64C1430.76 130.64 1435.24 129.055 1438.63 125.884C1442.02 122.713 1443.71 118.559 1443.71 113.42C1443.71 108.172 1442.02 103.963 1438.63 100.792C1435.24 97.6213 1430.76 96.036 1425.18 96.036C1419.61 96.036 1415.07 97.6213 1411.57 100.792C1408.18 103.963 1406.49 108.172 1406.49 113.42C1406.49 118.559 1408.18 122.713 1411.57 125.884Z" fill="url(#paint1_linear_104_262)"/>
<defs>
<linearGradient id="paint0_linear_104_262" x1="-45.0887" y1="247.337" x2="1489.49" y2="554.421" gradientUnits="userSpaceOnUse">
<stop stop-color="#63A5FF"/>
<stop offset="0.333333" stop-color="#ED30FF"/>
<stop offset="0.65625" stop-color="#FF4A64"/>
<stop offset="1" stop-color="#F5FF8C"/>
</linearGradient>
<linearGradient id="paint1_linear_104_262" x1="-45.0887" y1="97.3365" x2="1489.49" y2="404.421" gradientUnits="userSpaceOnUse">
<stop stop-color="#63A5FF"/>
<stop offset="0.333333" stop-color="#ED30FF"/>
<stop offset="0.65625" stop-color="#FF4A64"/>
<stop offset="1" stop-color="#F5FF8C"/>
</linearGradient>
</defs>
</svg>
